<svg xmlns="http://www.w3.org/2000/svg" width="512" height="512" viewBox="0 0 512 512" data-svgdocument="" id="_7Lab0uqdXaJB-6XuzsdKC" class="fl-svgdocument" x="0" y="0" overflow="hidden" style=""><rect data-fl-background="" x="0" y="0" width="512" height="512" fill="transparent"></rect><defs id="_SoBH_DLL-l39Eh-0QPAku" transform="matrix(0.3571492770812129, 0, 0, 0.3571492770812129, 27.020147056886167, 188.46032687365437)"></defs><path text="K" fill="#335544" space="preserve" text-anchor="end" offset="1" font-scale="contain" font-size="48" font-family="Great Vibes" transform="matrix(2.7048741963382095, 0, 0, 2.7048741963382095, 149.31446447825354, 299.9823681834321)" font-weight="400" font-style="normal" data-fl-textpath="" d="M-11.811999999999998-7.3L-11.811999999999998-7.3Q-12.091999999999999-8.93 -12.192-9.98Q-12.292000000000002-11.04 -12.292000000000002-12.17Q-12.292000000000002-13.3 -11.902000000000001-13.44L-11.902000000000001-13.44Q-11.851999999999997-13.44 -11.762-13.44L-11.762-13.44Q-10.321999999999996-13.44 -6.432000000000002-15.41Q-2.5420000000000016-17.38  2.4280000000000044-20.71Q 7.387999999999998-24.05  12.788000000000004-29.26Q 18.187999999999995-34.46  21.698-39.79L 21.698-39.79Q 22.318000000000005-40.7  22.747999999999998-40.7L 22.747999999999998-40.7Q 22.898000000000003-40.7  23.068000000000005-40.56Q 23.228-40.42  23.228-40.08Q 23.228-39.74  22.898000000000003-39.17L 22.898000000000003-39.17Q 17.428000000000004-30.1  7.4879999999999995-22.1Q-2.451999999999998-14.11 -9.122-12.43L-9.122-12.43Q-9.211999999999996-12.29 -9.211999999999996-11.83Q-9.211999999999996-11.38 -9.122-10.32Q-9.021999999999998-9.26 -8.182000000000002-6.26Q-7.341999999999999-3.26 -6.241999999999997-0.72L-6.241999999999997-0.72Q-2.9720000000000013 6.77  2.347999999999999 6.77L 2.347999999999999 6.77Q 5.428000000000004 6.77  8.228000000000002 5.47Q 11.038000000000004 4.18  12.288000000000004 1.73L 12.288000000000004 1.73Q 12.577999999999996 1.06  13.008000000000003 1.06Q 13.437999999999995 1.06  12.907999999999994 2.11L 12.907999999999994 2.11Q 11.618000000000002 4.75  8.378 6.79Q 5.137999999999998 8.83  1.7280000000000015 8.83Q-1.6820000000000022 8.83 -4.701999999999998 6.34L-4.701999999999998 6.34Q-9.982 2.02 -11.811999999999998-7.3ZM-5.372-34.56Q-4.851999999999997-35.47 -3.7719999999999985-36.79Q-2.692-38.11 -1.891999999999996-38.33Q-1.1019999999999968-38.54 -0.3620000000000019-38.54Q 0.3879999999999981-38.54  0.7680000000000007-37.92Q 1.1480000000000032-37.3  1.1480000000000032-36.67Q 1.1480000000000032-36.05  0.23799999999999955-35.23L 0.23799999999999955-35.23Q-1.2920000000000016-33.84 -4.612000000000002-33.5L-4.612000000000002-33.5Q-7.341999999999999-28.56 -10.891999999999996-17.62L-10.891999999999996-17.62Q-12.192-13.63 -14.372-9.14Q-16.561999999999998-4.66 -19.052-1.3Q-21.552 2.06 -25.651999999999997 4.63Q-29.762 7.2 -34.942 7.97L-34.942 7.97Q-36.622 8.21 -38.662 8.21Q-40.702 8.21 -43.102 7.68L-43.102 7.68Q-51.891999999999996 5.66 -54.432-0.96L-54.432-0.96Q-55.202-2.98-55.202-4.97Q-55.202-6.96 -54.652-9.07Q-54.092-11.18 -52.251999999999995-12.84Q-50.402-14.5 -49.202-14.64L-49.202-14.64Q-48.572-14.74 -48.572-14.35L-48.572-14.35Q-48.572-14.11 -48.862-13.97L-48.862-13.97Q-50.012-13.44 -51.652-11.47L-51.652-11.47Q-53.762-8.88 -53.762-5.04L-53.762-5.04Q-53.762-1.1 -51.362 1.34L-51.362 1.34Q-48.432 4.42 -44.452 5.18L-44.452 5.18Q-41.712 5.71 -39.932 5.71Q-38.162 5.71 -36.812 5.33L-36.812 5.33Q-32.882 4.42 -29.451999999999998 2.47Q-26.012 0.53 -23.692-1.66Q-21.362000000000002-3.84 -19.222-6.89Q-17.092-9.94 -15.862000000000002-12.24Q-14.641999999999996-14.54 -11.521999999999998-21.6Q-8.402000000000001-28.66 -6.052-33.41L-6.052-33.41Q-6.7719999999999985-33.31 -10.171999999999997-33.02L-10.171999999999997-33.02Q-16.461999999999996-32.5 -19.972-31.49L-19.972-31.49Q-26.541999999999998-29.66 -29.332-24.48L-29.332-24.48Q-30.672-21.98 -30.672-19.63L-30.672-19.63Q-30.672-18.38 -30.291999999999998-17.18L-30.291999999999998-17.18Q-29.232-13.97 -26.112-13.97L-26.112-13.97Q-22.171999999999997-13.97 -20.592-18.05L-20.592-18.05Q-19.821999999999996-20.02 -19.821999999999996-21.31Q-19.821999999999996-22.61 -19.921999999999997-23.14Q-20.012-23.66 -19.772-23.66L-19.772-23.66Q-19.391999999999996-23.57 -19.101999999999997-23.04L-19.101999999999997-23.04Q-18.671999999999997-22.03 -18.671999999999997-20.66Q-18.671999999999997-19.3 -19.582-17.52L-19.582-17.52Q-21.022-14.5 -23.612-13.54L-23.612-13.54Q-25.201999999999998-12.96 -26.592-12.96L-26.592-12.96Q-28.991999999999997-12.96 -30.912-14.69L-30.912-14.69Q-33.501999999999995-16.99 -33.501999999999995-20.69L-33.501999999999995-20.69Q-33.501999999999995-25.92 -28.612-29.47L-28.612-29.47Q-24.092-32.83 -15.552-33.74L-15.552-33.74Q-12.961999999999996-34.03 -9.622-34.25Q-6.292000000000002-34.46 -5.372-34.56L-5.372-34.56ZM-0.33200000000000074-36.67L-0.33200000000000074-36.67Q-0.33200000000000074-37.2 -0.7719999999999985-37.2L-0.7719999999999985-37.2Q-1.2920000000000016-37.2 -1.8519999999999968-36.74Q-2.402000000000001-36.29 -3.7419999999999973-34.7L-3.7419999999999973-34.7Q-2.3519999999999968-34.9 -1.631999999999998-35.28L-1.631999999999998-35.28Q-0.33200000000000074-35.9 -0.33200000000000074-36.67Z"></path><g transform="matrix(-0.03366186341610392, 5.688946831835693, 5.688946831835693, 0.03366186341610392, 79.30192237154301, -29.251697204016928)" fill="#ff8866" stroke="#335544" stroke-width="0.5"><g stroke-width="0.5"><path fill="#ff8866" d="M28.283,26.114c-1.063-0.59,0.233,3.208,0.522,3.9c0.288,0.69,0.616,1.36,0.959,2.022   c-0.198-0.599-0.386-1.201-0.552-1.813C29.067,29.686,28.665,26.327,28.283,26.114z" transform="matrix(1, 0, 0, 1, 0, 0)" stroke="#335544" stroke-width="0.5"></path><path fill="#ff8866" d="M34.747,27.711c-0.369-1.886-1.981-0.449-2.545,0.502c-0.35,0.59-0.641,1.241-0.847,1.894   c-0.249,0.787-0.392,1.581-0.431,2.38c0.169,0.466,0.348,0.928,0.548,1.383C32.935,32.035,35.151,29.775,34.747,27.711z" transform="matrix(1, 0, 0, 1, 0, 0)" stroke="#335544" stroke-width="0.5"></path><path fill="#ff8866" d="M12.82,36.091c-0.083-0.061-0.166-0.12-0.249-0.181c-0.061-0.045-0.089-0.103-0.105-0.164   c-1.053-1.01-2.187-1.905-3.667-2.323c-3.185-0.898-1.211,2.083,0.323,2.667c0.776,0.295,1.788,0.255,2.617,0.415   c0.622,0.12,1.259,0.255,1.897,0.412C13.365,36.64,13.094,36.364,12.82,36.091z" transform="matrix(1, 0, 0, 1, 0, 0)" stroke="#335544" stroke-width="0.5"></path><path fill="#ff8866" d="M24.033,31.807c-1.548,1.564,4.061,2.34,4.81,2.567c0.193,0.058,0.381,0.123,0.564,0.193   C27.55,33.129,24.694,31.139,24.033,31.807z" transform="matrix(1, 0, 0, 1, 0, 0)" stroke="#335544" stroke-width="0.5"></path><path fill="#ff8866" d="M54.95,29.113c-0.613-0.115-0.751,0.116-0.414,0.693c-0.024,0.527,0.281,1.269,0.419,1.785   c0.33,1.231,0.724,2.454,1.347,3.571c0.304,0.546,0.705,1.012,1.127,1.46c-0.387-2.138,0.054-4.641-1.161-6.569   C56.059,29.196,55.62,28.883,54.95,29.113z" transform="matrix(1, 0, 0, 1, 0, 0)" stroke="#335544" stroke-width="0.5"></path><path fill="#ff8866" d="M8.004,42.286c1.29-0.338,2.736-1.331,3.742-1.972c0.972-0.619,1.816-1.347,2.621-2.142   c-0.027-0.008-0.055-0.016-0.082-0.024C11.677,38.659,9.183,39.811,8.004,42.286z" transform="matrix(1, 0, 0, 1, 0, 0)" stroke="#335544" stroke-width="0.5"></path><path fill="#ff8866" d="M51.848,42.537c0.816,0.906,3.1,0.331,4.056-0.055c0.879-0.355,1.615-0.906,2.339-1.483   c-0.869,0.106-1.756,0.13-2.619,0.205C54.955,41.262,50.947,41.536,51.848,42.537z" transform="matrix(1, 0, 0, 1, 0, 0)" stroke="#335544" stroke-width="0.5"></path><path fill="#ff8866" d="M52.574,38.026c1.01,0.042,2.087,0.167,3.152,0.392c-0.07-0.041-0.139-0.084-0.21-0.124   c-0.024-0.013-0.047-0.027-0.071-0.04c-0.184-0.102-0.37-0.201-0.56-0.293c-0.899-0.435-1.829-0.795-2.794-1.052   c-1.213-0.324-1.852-0.767-2.496,0.441c-0.872,0.959-0.472,1.514,1.199,1.664c0.663,0.172,1.339,0.261,2.027,0.265   c0.941,0.033,1.882-0.073,2.824-0.053c-1.012-0.348-2.062-0.615-3.099-0.853C52.355,38.329,52.371,38.017,52.574,38.026z" transform="matrix(1, 0, 0, 1, 0, 0)" stroke="#335544" stroke-width="0.5"></path><path fill="#ff8866" d="M34.404,64.298c-0.587,1.845,4.329,1.017,5.107,0.833c1.619-0.383,3.134-0.992,4.507-1.875   c-1.346,0.013-2.692,0.043-4.038,0.101C38.96,63.401,34.739,63.244,34.404,64.298z" transform="matrix(1, 0, 0, 1, 0, 0)" stroke="#335544" stroke-width="0.5"></path><path fill="#ff8866" d="M44.882,66.107c-0.056,0.093-0.115,0.186-0.172,0.28c-0.195,0.978-0.305,2.175,0.783,2.486   c1.532,0.437,1.298-1.984,1.011-2.834c-0.185-0.549-0.453-1.067-0.739-1.572C45.484,65.034,45.193,65.585,44.882,66.107z" transform="matrix(1, 0, 0, 1, 0, 0)" stroke="#335544" stroke-width="0.5"></path><path fill="#ff8866" d="M14.526,32.145c-0.029-0.555-0.3-0.679-0.812-0.373c-0.701-0.084-0.895,0.232-0.58,0.947   c0.06,0.236,0.132,0.468,0.216,0.696c0.142,0.417,0.306,0.831,0.473,1.239c0.22,0.539,0.453,1.073,0.693,1.604   c0.017,0.021,0.035,0.042,0.052,0.064c0.112-0.69,0.213-1.371,0.202-2.087c-0.006-0.384-0.028-0.765-0.076-1.146   C14.654,32.771,14.598,32.457,14.526,32.145z" transform="matrix(1, 0, 0, 1, 0, 0)" stroke="#335544" stroke-width="0.5"></path><path fill="#ff8866" d="M16.938,53.133c-0.788-0.281-1.56-0.603-2.35-0.88c-0.255-0.089-0.821-0.382-1.113-0.351   c-0.443,0.047-1.098,0.835-0.839,1.167c0.381,0.488,1.743,0.698,2.356,0.818c0.821,0.16,1.665,0.21,2.5,0.167   c0.61-0.031,1.202-0.133,1.786-0.268C18.482,53.656,17.705,53.406,16.938,53.133z" transform="matrix(1, 0, 0, 1, 0, 0)" stroke="#335544" stroke-width="0.5"></path><path fill="#ff8866" d="M33.082,72.678c-0.951,3.462,3.023,0.636,3.81,0.078c1.936-1.372,3.647-3.115,5.086-4.996   c0.372-0.486,0.724-1.033,1.067-1.622c-2.179,1.635-4.692,2.877-6.982,4.326C35.447,70.854,33.286,71.935,33.082,72.678z" transform="matrix(1, 0, 0, 1, 0, 0)" stroke="#335544" stroke-width="0.5"></path><path fill="#ff8866" d="M10.303,60.793c1.092-0.303,2.081-0.885,3.011-1.516c0.945-0.642,1.837-1.361,2.709-2.105   c-1.894,0.759-3.852,1.407-5.591,2.336C9.536,59.986,7.607,61.54,10.303,60.793z" transform="matrix(1, 0, 0, 1, 0, 0)" stroke="#335544" stroke-width="0.5"></path><path fill="#ff8866" d="M19.069,58.238c-0.24,0.791-0.452,1.589-0.638,2.395c-0.096,0.402-0.182,0.806-0.258,1.212   c-0.399,0.698-0.3,0.964,0.297,0.797c1.523,0.527,1.404-4.114,1.48-5.054c0.074-0.924,0.252-1.791,0.546-2.635   c-0.072,0.06-0.143,0.122-0.215,0.183C19.768,56.103,19.399,57.148,19.069,58.238z" transform="matrix(1, 0, 0, 1, 0, 0)" stroke="#335544" stroke-width="0.5"></path></g><path d="M93.601,36.829c-3.434,2.929-7.078,5.417-10.909,7.451c-2.654,0.206-5.224,0.706-7.951,0.533   c-3.678-0.234-7.323-1.158-10.66-2.727c-1.394-0.655-2.74-1.457-4.08-2.271c0.003-0.036-0.002-0.073-0.024-0.108   c-1.184-1.822-1.779-3.144-1.67-5.395c0.067-1.366,0.041-2.516-0.485-3.799c-0.479-1.168-2.096-3.971-3.736-2.994   c-1.538,0.916-0.214,3.551,0.179,4.699c0.428,1.252,0.937,2.52,1.661,3.636c0.509,0.784,1.13,1.466,1.74,2.16   c-1.458-0.949-3.15-1.666-4.646-2.119c-0.993-0.301-3.109-0.904-4.393-0.392c-0.013,0.005-0.026,0.009-0.037,0.016   c-0.359,0.152-0.654,0.389-0.831,0.756c-0.684,1.419,1.006,2.73,2.126,3.213c2.162,0.932,4.524,0.363,6.808,0.473   c-2.979,0.286-7.179,1.081-5.808,2.958c0.851,1.166,3.222,0.984,4.406,0.649c1.548-0.438,2.998-1.441,4.034-2.693   c0.103,0.044,0.203,0.094,0.307,0.135c0.058,0.023,0.118,0.033,0.177,0.032c2.224,1.5,4.459,2.972,6.892,3.824   c3.135,1.099,7.109,1.909,10.885,1.8c-6.821,2.796-14.159,4.24-21.899,4.25c-2.535-1.002-5.147-1.797-7.614-3.011   c-3.326-1.636-6.524-3.62-9.449-5.895c-2.584-2.01-5.099-4.228-6.659-7.126c1.38-1.551,2.871-3.48,3.562-5.344   c0.476-1.283,0.658-3.546-0.955-4.153c-1.809-0.681-3.167,2.094-3.671,3.39c-0.27,0.696-0.434,1.403-0.512,2.114   c-0.351-1.131-0.67-2.272-1.027-3.402c-0.143-1.174-0.05-2.648-0.939-3.462c-0.098-0.09-0.275-0.149-0.404-0.091   c-2.774,1.246-0.342,6.343,1.517,9.553c-1.599-1.204-3.379-2.209-5.272-2.749c-1.258-0.358-3.326-0.48-2.812,1.542   c0.448,1.766,3.351,2.279,4.788,2.601c2.02,0.453,3.872,0.846,5.501,2.225c0.334,0.283,0.653,0.584,0.965,0.894   c1.34,1.735,3.001,3.231,4.682,4.63c3.545,2.952,7.915,5.966,12.502,7.945c-5.751-0.709-11.116-2.468-16.577-4.9   c-6.144-2.735-12.472-5.367-18.194-8.948c0.6-1.354,0.742-3.034,0.475-4.443c-0.193-1.02-0.811-2.294-2.06-2.076   c-1.895,0.332-1.613,2.266-0.825,4.163c-1.3-1.114-2.825-1.953-4.503-2.207c-1.449-0.219-3.167-0.125-3.205,1.678   c-0.044,2.13,2.205,2.951,3.9,3.271c1.346,0.254,2.692,0.414,4.028,0.695c-2.661,0.613-5.01,2.067-6.027,4.839   c-0.113,0.308,0.051,0.652,0.414,0.645c1.561-0.031,3.04-1.129,4.333-1.914c1.356-0.824,2.558-1.769,3.643-2.906   c0.925,0.33,1.811,0.717,2.698,1.121c4.87,3.045,10.006,5.609,15.265,7.989c-4.405,0.017-8.733,2.618-12.284,5.387   c-0.058-0.046-0.127-0.083-0.22-0.094c-2.559-0.313-4.772-1.516-7.265-1.989c-1.177-0.223-3.08,0.341-2.552,1.93   c0.52,1.566,3.508,2.035,4.865,2.15c0.985,0.083,1.965,0.008,2.909-0.208c-2.15,1.046-4.332,1.964-6.555,2.93   c-1.926,0.837-4.091,1.679-5.157,3.581c-0.178,0.318,0.039,0.719,0.377,0.797c4.421,1.014,8.156-2.693,11.277-5.51   c-0.251,0.598-0.469,1.222-0.666,1.866c-0.339,1.109-1.953,4.881-0.751,5.814c1.037,0.805,2.663-1.082,3.042-1.794   c0.484-0.911,0.592-1.914,0.646-2.929c0.101-1.882,0.294-3.597,0.661-5.44c4.297-3.401,8.99-5.933,14.559-5.238   c5.209,2.119,10.545,3.398,16.125,3.764c-3.411,1.593-5.388,5.737-7.218,9.592c-2.871-0.006-13.399,0.113-11.727,3.14   c0.867,1.57,4.208,1.197,5.582,0.938c0.958-0.181,1.973-0.448,2.938-0.835c-1.107,0.824-2.268,1.582-3.493,2.31   c-2.058,1.224-4.462,2.372-6.134,4.135c-0.766,0.808-1.911,2.442-1.068,3.589c0.807,1.099,2.447,0.475,3.451,0.1   c3.763-1.405,6.869-4.413,9.167-7.726c0.103,1.047,0.932,2.148,2.083,2.033c1.206-0.121,1.77-1.414,1.792-2.489   c0.029-1.432-0.661-2.762-1.369-3.972c2.152-4.643,3.952-9.969,9.685-10.691c0.017-0.002,0.028-0.01,0.043-0.013   C69.737,52.626,85.093,48.116,94.77,37.9C95.491,37.14,94.355,36.186,93.601,36.829z M56.303,35.162   c-0.623-1.117-1.018-2.34-1.347-3.571c-0.138-0.516-0.443-1.258-0.419-1.785c-0.338-0.577-0.2-0.808,0.414-0.693   c0.67-0.23,1.109,0.083,1.319,0.94c1.216,1.929,0.774,4.431,1.161,6.569C57.008,36.175,56.607,35.708,56.303,35.162z    M52.544,38.372c1.037,0.238,2.087,0.505,3.099,0.853c-0.941-0.02-1.883,0.086-2.824,0.053c-0.688-0.005-1.364-0.093-2.027-0.265   c-1.671-0.15-2.07-0.705-1.199-1.664c0.645-1.208,1.283-0.765,2.496-0.441c0.966,0.258,1.896,0.617,2.794,1.052   c0.19,0.092,0.376,0.191,0.56,0.293c0.024,0.013,0.047,0.027,0.071,0.04c0.071,0.04,0.14,0.083,0.21,0.124   c-1.064-0.224-2.141-0.349-3.152-0.392C52.371,38.017,52.355,38.329,52.544,38.372z M55.904,42.482   c-0.956,0.386-3.24,0.961-4.056,0.055c-0.901-1.001,3.107-1.275,3.776-1.333c0.863-0.075,1.75-0.099,2.619-0.205   C57.519,41.576,56.783,42.127,55.904,42.482z M28.843,34.373c-0.749-0.227-6.358-1.003-4.81-2.567   c0.661-0.668,3.516,1.322,5.374,2.759C29.224,34.496,29.036,34.432,28.843,34.373z M28.804,30.014   c-0.289-0.692-1.585-4.49-0.522-3.9c0.382,0.212,0.784,3.571,0.929,4.109c0.165,0.612,0.354,1.214,0.552,1.813   C29.42,31.374,29.093,30.704,28.804,30.014z M31.471,33.87c-0.2-0.455-0.379-0.917-0.548-1.383c0.039-0.799,0.183-1.593,0.431-2.38   c0.206-0.653,0.497-1.303,0.847-1.894c0.565-0.951,2.176-2.388,2.545-0.502C35.151,29.775,32.935,32.035,31.471,33.87z    M11.74,36.505c-0.829-0.16-1.842-0.12-2.617-0.415c-1.534-0.583-3.508-3.565-0.323-2.667c1.481,0.418,2.615,1.313,3.667,2.323   c0.015,0.061,0.044,0.119,0.105,0.164c0.082,0.061,0.166,0.12,0.249,0.181c0.274,0.272,0.545,0.549,0.817,0.825   C12.999,36.76,12.362,36.625,11.74,36.505z M11.746,40.314c-1.006,0.641-2.452,1.634-3.742,1.972   c1.179-2.474,3.672-3.627,6.28-4.137c0.027,0.008,0.055,0.016,0.082,0.024C13.562,38.967,12.718,39.695,11.746,40.314z    M14.567,36.322c-0.017-0.021-0.035-0.042-0.052-0.064c-0.24-0.531-0.473-1.065-0.693-1.604c-0.166-0.408-0.33-0.821-0.473-1.239   c-0.084-0.228-0.156-0.46-0.216-0.696c-0.315-0.715-0.122-1.031,0.58-0.947c0.512-0.307,0.783-0.183,0.812,0.373   c0.072,0.312,0.128,0.626,0.168,0.944c0.048,0.38,0.07,0.762,0.076,1.146C14.78,34.95,14.679,35.632,14.567,36.322z M13.314,59.276   c-0.93,0.632-1.92,1.214-3.011,1.516c-2.695,0.747-0.767-0.807,0.129-1.286c1.739-0.928,3.697-1.577,5.591-2.336   C15.151,57.915,14.26,58.634,13.314,59.276z M17.492,54.054c-0.835,0.043-1.679-0.007-2.5-0.167   c-0.613-0.12-1.975-0.329-2.356-0.818c-0.259-0.332,0.396-1.12,0.839-1.167c0.292-0.031,0.858,0.261,1.113,0.351   c0.789,0.277,1.562,0.599,2.35,0.88c0.766,0.273,1.544,0.523,2.34,0.653C18.695,53.922,18.102,54.023,17.492,54.054z M19.95,57.589   c-0.076,0.939,0.043,5.581-1.48,5.054c-0.597,0.166-0.696-0.099-0.297-0.797c0.076-0.406,0.163-0.81,0.258-1.212   c0.185-0.806,0.398-1.604,0.638-2.395c0.33-1.09,0.699-2.135,1.212-3.101c0.072-0.06,0.143-0.122,0.215-0.183   C20.202,55.798,20.024,56.666,19.95,57.589z M41.978,67.76c-1.439,1.881-3.149,3.624-5.086,4.996   c-0.787,0.557-4.76,3.384-3.81-0.078c0.204-0.743,2.365-1.824,2.981-2.214c2.29-1.449,4.802-2.691,6.982-4.326   C42.702,66.728,42.349,67.275,41.978,67.76z M39.511,65.131c-0.778,0.184-5.693,1.012-5.107-0.833   c0.335-1.054,4.556-0.897,5.575-0.941c1.346-0.058,2.692-0.088,4.038-0.101C42.645,64.14,41.13,64.749,39.511,65.131z    M46.504,66.039c0.287,0.85,0.521,3.272-1.011,2.834c-1.088-0.311-0.978-1.508-0.783-2.486c0.057-0.093,0.116-0.186,0.172-0.28   c0.311-0.522,0.602-1.073,0.883-1.641C46.052,64.972,46.319,65.489,46.504,66.039z" transform="matrix(1, 0, 0, 1, 0, 0)" fill="#ff8866" stroke="#335544" stroke-width="0.5"></path></g><path text="o" fill="#335544" space="preserve" text-anchor="start" offset="0" font-scale="contain" font-size="48" font-family="Great Vibes" transform="matrix(5.799433390519091, 0, 0, 5.799433390519091, 98.0104296922739, 512)" font-weight="400" font-style="normal" data-fl-textpath="" d="M 11.47-16.8L 11.47-16.8Q 14.98-16.8  14.98-12.38L 14.98-12.38Q 14.98-10.37  13.92-8.06L 13.92-8.06Q 12.58-4.94  9.89-2.4L 9.89-2.4Q 10.51-1.2  12.14-1.2L 12.14-1.2Q 13.44-1.2  14.59-2.5L 14.59-2.5Q 16.03-3.98  16.66-5.11Q 17.28-6.24  17.57-6.77Q 17.86-7.3  18.31-8.28Q 18.77-9.26  18.86-9.48Q 18.96-9.7  19.2-9.7L 19.2-9.7Q 19.68-9.74  19.68-9.36L 19.68-9.36Q 19.68-9.22  19.58-9.02L 19.58-9.02L 19.3-8.35Q 19.01-7.68  18.86-7.39Q 18.72-7.1  18.36-6.36Q 18-5.62  17.74-5.18Q 17.47-4.75  17.02-4.03Q 16.56-3.31  16.2-2.88Q 15.84-2.45  15.31-1.92Q 14.78-1.39  14.3-1.1L 14.3-1.1Q 13.1-0.38  12.05-0.38L 12.05-0.38Q 10.08-0.38  8.98-1.63L 8.98-1.63Q 6.77 0  4.9 0L 4.9 0Q 1.39 0  1.39-4.42L 1.39-4.42Q 1.39-6.43  2.45-8.74L 2.45-8.74Q 3.89-12.1  6.5-14.45Q 9.12-16.8  11.47-16.8ZM 12-15.31L 12-15.31Q 10.7-15.31  8.93-13.58Q 7.15-11.86  5.76-8.88L 5.76-8.88Q 4.08-5.42  4.08-3.22Q 4.08-1.01  5.76-1.01L 5.76-1.01Q 6.96-1.01  8.45-2.3L 8.45-2.3Q 7.68-3.41  7.68-4.66L 7.68-4.66Q 7.78-6.72  9.36-6.72L 9.36-6.72Q 9.98-6.72  10.39-6.29Q 10.8-5.86  10.8-5.5Q 10.8-5.14  10.7-4.75L 10.7-4.75Q 11.52-5.95  12.58-8.16L 12.58-8.16Q 13.78-10.61  13.78-12.96Q 13.78-15.31  12-15.31Z"></path></svg>