<svg xmlns="http://www.w3.org/2000/svg" width="512" height="512" style="" viewBox="0 0 512 512" data-svgdocument="" id="_7Lab0uqdXaJB-6XuzsdKC" class="fl-svgdocument" x="0" y="0" overflow="hidden" data-bbox="1.1368683772161603e-13 70.86671684970739 540.960097107414 357.70550137672535"><rect data-fl-background="" x="0" y="0" width="512" height="512" fill="transparent"></rect><defs id="_SoBH_DLL-l39Eh-0QPAku" transform="matrix(0.35714927315711975, 0, 0, 0.35714927315711975, 27.0201473236084, 188.4603271484375)"></defs><path text="Keratin" fill="rgba(51, 85, 68, 1)" space="preserve" text-anchor="end" offset="1" font-scale="contain" font-size="48" font-family="Great Vibes" transform="matrix(3.0591893196105957, 0, 0, 3.0591893196105957, 398.6796875, 302.48468017578125)" font-weight="400" font-style="normal" data-fl-textpath="" d="M-86.93200000000002-7.3L-86.93200000000002-7.3Q-87.21200000000002-8.93 -87.31200000000001-9.98Q-87.412-11.04 -87.412-12.17Q-87.412-13.3 -87.02200000000002-13.44L-87.02200000000002-13.44Q-86.97200000000001-13.44 -86.882-13.44L-86.882-13.44Q-85.44200000000001-13.44 -81.55200000000002-15.41Q-77.662-17.38 -72.69200000000001-20.71Q-67.73200000000001-24.05 -62.33200000000001-29.26Q-56.932000000000016-34.46 -53.42200000000001-39.79L-53.42200000000001-39.79Q-52.80200000000001-40.7 -52.372000000000014-40.7L-52.372000000000014-40.7Q-52.22200000000001-40.7 -52.05200000000001-40.56Q-51.89200000000001-40.42 -51.89200000000001-40.08Q-51.89200000000001-39.74 -52.22200000000001-39.17L-52.22200000000001-39.17Q-57.69200000000001-30.1 -67.632-22.1Q-77.572-14.11 -84.24200000000002-12.43L-84.24200000000002-12.43Q-84.33200000000001-12.29 -84.33200000000001-11.83Q-84.33200000000001-11.38 -84.24200000000002-10.32Q-84.14200000000001-9.26 -83.30200000000002-6.26Q-82.46200000000002-3.26 -81.36200000000001-0.72L-81.36200000000001-0.72Q-78.09200000000001 6.77 -72.77200000000002 6.77L-72.77200000000002 6.77Q-69.69200000000001 6.77 -66.89200000000001 5.47Q-64.08200000000001 4.18 -62.83200000000001 1.73L-62.83200000000001 1.73Q-62.542000000000016 1.06 -62.11200000000001 1.06Q-61.682000000000016 1.06 -62.21200000000002 2.11L-62.21200000000002 2.11Q-63.50200000000001 4.75 -66.74200000000002 6.79Q-69.98200000000001 8.83 -73.39200000000001 8.83Q-76.80200000000002 8.83 -79.822 6.34L-79.822 6.34Q-85.102 2.02 -86.93200000000002-7.3ZM-80.49200000000002-34.56Q-79.97200000000001-35.47 -78.89200000000001-36.79Q-77.81200000000001-38.11 -77.012-38.33Q-76.22200000000001-38.54 -75.48200000000001-38.54Q-74.73200000000001-38.54 -74.352-37.92Q-73.97200000000001-37.3 -73.97200000000001-36.67Q-73.97200000000001-36.05 -74.882-35.23L-74.882-35.23Q-76.412-33.84 -79.73200000000001-33.5L-79.73200000000001-33.5Q-82.46200000000002-28.56 -86.012-17.62L-86.012-17.62Q-87.31200000000001-13.63 -89.49200000000002-9.14Q-91.68200000000002-4.66 -94.17200000000001-1.3Q-96.67200000000001 2.06 -100.772 4.63Q-104.882 7.2 -110.06200000000001 7.97L-110.06200000000001 7.97Q-111.74200000000002 8.21 -113.78200000000001 8.21Q-115.822 8.21 -118.22200000000001 7.68L-118.22200000000001 7.68Q-127.01200000000001 5.66 -129.55200000000002-0.96L-129.55200000000002-0.96Q-130.322-2.98-130.322-4.97Q-130.322-6.96 -129.77200000000002-9.07Q-129.21200000000002-11.18 -127.37200000000001-12.84Q-125.522-14.5 -124.32200000000002-14.64L-124.32200000000002-14.64Q-123.69200000000001-14.74 -123.69200000000001-14.35L-123.69200000000001-14.35Q-123.69200000000001-14.11 -123.98200000000001-13.97L-123.98200000000001-13.97Q-125.132-13.44 -126.772-11.47L-126.772-11.47Q-128.882-8.88 -128.882-5.04L-128.882-5.04Q-128.882-1.1 -126.48200000000001 1.34L-126.48200000000001 1.34Q-123.552 4.42 -119.572 5.18L-119.572 5.18Q-116.83200000000001 5.71 -115.052 5.71Q-113.28200000000001 5.71 -111.93200000000002 5.33L-111.93200000000002 5.33Q-108.00200000000001 4.42 -104.572 2.47Q-101.132 0.53 -98.81200000000001-1.66Q-96.48200000000001-3.84 -94.34200000000001-6.89Q-92.21200000000002-9.94 -90.98200000000001-12.24Q-89.762-14.54 -86.64200000000001-21.6Q-83.52200000000002-28.66 -81.17200000000001-33.41L-81.17200000000001-33.41Q-81.89200000000001-33.31 -85.292-33.02L-85.292-33.02Q-91.58200000000001-32.5 -95.09200000000001-31.49L-95.09200000000001-31.49Q-101.662-29.66 -104.45200000000001-24.48L-104.45200000000001-24.48Q-105.79200000000002-21.98 -105.79200000000002-19.63L-105.79200000000002-19.63Q-105.79200000000002-18.38 -105.412-17.18L-105.412-17.18Q-104.352-13.97 -101.23200000000001-13.97L-101.23200000000001-13.97Q-97.292-13.97 -95.71200000000002-18.05L-95.71200000000002-18.05Q-94.94200000000001-20.02 -94.94200000000001-21.31Q-94.94200000000001-22.61 -95.042-23.14Q-95.132-23.66 -94.89200000000001-23.66L-94.89200000000001-23.66Q-94.512-23.57 -94.22200000000001-23.04L-94.22200000000001-23.04Q-93.792-22.03 -93.792-20.66Q-93.792-19.3 -94.70200000000001-17.52L-94.70200000000001-17.52Q-96.14200000000001-14.5 -98.73200000000001-13.54L-98.73200000000001-13.54Q-100.322-12.96 -101.71200000000002-12.96L-101.71200000000002-12.96Q-104.11200000000001-12.96 -106.03200000000001-14.69L-106.03200000000001-14.69Q-108.62200000000001-16.99 -108.62200000000001-20.69L-108.62200000000001-20.69Q-108.62200000000001-25.92 -103.73200000000001-29.47L-103.73200000000001-29.47Q-99.21200000000002-32.83 -90.67200000000001-33.74L-90.67200000000001-33.74Q-88.08200000000001-34.03 -84.74200000000002-34.25Q-81.412-34.46 -80.49200000000002-34.56L-80.49200000000002-34.56ZM-75.45200000000001-36.67L-75.45200000000001-36.67Q-75.45200000000001-37.2 -75.89200000000001-37.2L-75.89200000000001-37.2Q-76.412-37.2 -76.97200000000001-36.74Q-77.52200000000002-36.29 -78.86200000000001-34.7L-78.86200000000001-34.7Q-77.47200000000001-34.9 -76.75200000000001-35.28L-76.75200000000001-35.28Q-75.45200000000001-35.9 -75.45200000000001-36.67ZM-70.27000000000001-7.39L-70.27000000000001-7.39Q-70.94-5.76 -70.94-3.74L-70.94-3.74Q-70.94-2.4 -70.34-1.61Q-69.74000000000001-0.82 -68.64-0.82L-68.64-0.82Q-64.27000000000001-0.82 -60.720000000000006-9.02L-60.720000000000006-9.02Q-60.38-9.79 -59.900000000000006-9.7L-59.900000000000006-9.7Q-59.71000000000001-9.65 -59.71000000000001-9.46Q-59.71000000000001-9.26 -60.790000000000006-6.94Q-61.870000000000005-4.61 -62.980000000000004-3.17L-62.980000000000004-3.17Q-65.42 0.19 -69.02000000000001 0.19L-69.02000000000001 0.19Q-70.94 0.19 -72.29-1.06Q-73.63000000000001-2.3 -73.63000000000001-4.46Q-73.63000000000001-6.62 -72.60000000000001-9.05Q-71.57000000000001-11.47 -69.79-13.56Q-68.02000000000001-15.65 -65.71000000000001-16.61L-65.71000000000001-16.61Q-64.61-17.09 -63.60000000000001-17.09Q-62.59-17.09 -61.730000000000004-16.51L-61.730000000000004-16.51Q-60.910000000000004-15.84 -60.910000000000004-15.02L-60.910000000000004-15.02Q-60.910000000000004-12.14 -64.37-9.5L-64.37-9.5Q-65.42-8.69 -67.34-8.04Q-69.26-7.39 -70.27000000000001-7.39ZM-62.21000000000001-15.07L-62.21000000000001-15.07Q-62.21000000000001-16.03 -62.980000000000004-16.03L-62.980000000000004-16.03Q-64.32000000000001-16.03 -67.06-12.72L-67.06-12.72Q-68.69-10.7 -69.94-8.21L-69.94-8.21Q-69.12-8.21 -67.56-8.78Q-66-9.36 -64.85000000000001-10.32L-64.85000000000001-10.32Q-62.21000000000001-12.58 -62.21000000000001-15.07ZM-54.142-19.25L-54.142-19.25Q-54.142-17.09 -56.882000000000005-15.17L-56.882000000000005-15.17Q-55.922000000000004-15.12 -54.312000000000005-15.12Q-52.702000000000005-15.12 -50.252-15.36L-50.252-15.36Q-50.162000000000006-15.22 -50.162000000000006-14.59Q-50.162000000000006-13.97 -50.732000000000006-12.74Q-51.312000000000005-11.52 -51.772000000000006-10.63Q-52.22200000000001-9.74 -52.632000000000005-8.95Q-53.042-8.16 -53.542-7.01Q-54.05200000000001-5.86 -54.382000000000005-4.9L-54.382000000000005-4.9Q-55.58200000000001-1.25 -54.002-1.25L-54.002-1.25Q-51.982000000000006-1.25 -48.05200000000001-9.26L-48.05200000000001-9.26Q-47.712-9.89 -47.492000000000004-9.74Q-47.282000000000004-9.6 -47.282000000000004-9.38Q-47.282000000000004-9.17 -47.902-7.9Q-48.532000000000004-6.62 -49.252-5.28Q-49.97200000000001-3.94 -51.502-2.16L-51.502-2.16Q-53.33200000000001 0.05 -55.012 0.05L-55.012 0.05Q-56.882000000000005 0.05 -57.602000000000004-2.21L-57.602000000000004-2.21Q-57.742000000000004-2.64 -57.742000000000004-3.5Q-57.742000000000004-4.37 -57.19200000000001-5.81Q-56.642-7.25 -55.44200000000001-9.31Q-54.242000000000004-11.38 -54.092000000000006-11.74Q-53.952000000000005-12.1 -53.952000000000005-12.43L-53.952000000000005-12.43Q-53.952000000000005-13.92 -57.792-14.02L-57.792-14.02L-58.37200000000001-12.48Q-61.392-4.56-64.17200000000001-1.87L-64.17200000000001-1.87Q-64.652-1.44-64.652-2.16L-64.652-2.16Q-64.652-2.3-64.56200000000001-2.5L-64.56200000000001-2.5Q-61.87200000000001-6.05 -59.902-10.9Q-57.932-15.74 -57.172000000000004-20.11L-57.172000000000004-20.11Q-56.882000000000005-21.6 -55.822-21.6Q-54.772000000000006-21.6 -54.292-20.26L-54.292-20.26Q-54.142-19.82 -54.142-19.25ZM-33.50200000000001-13.01Q-34.37200000000001-12.14 -35.952000000000005-9.1Q-37.53200000000001-6.05 -37.852000000000004-4.54Q-38.162000000000006-3.02 -38.162000000000006-2.09Q-38.162000000000006-1.15 -37.44200000000001-1.15L-37.44200000000001-1.15Q-36.53200000000001-1.15 -35.18200000000001-2.83L-35.18200000000001-2.83Q-33.212-5.28 -31.29200000000001-9.22L-31.29200000000001-9.22Q-31.102000000000007-9.65 -30.86200000000001-9.7L-30.86200000000001-9.7Q-30.482000000000006-9.84 -30.482000000000006-9.41L-30.482000000000006-9.41Q-30.482000000000006-9.17 -30.622000000000007-8.83L-30.622000000000007-8.83Q-35.04200000000001 0.1 -38.06200000000001 0.1L-38.06200000000001 0.1Q-39.452000000000005 0.1 -40.32200000000001-1.25L-40.32200000000001-1.25Q-40.75200000000001-1.97 -40.75200000000001-3.17Q-40.75200000000001-4.37 -40.272000000000006-6.1L-40.272000000000006-6.1Q-44.11200000000001 0.1 -46.89200000000001 0.1L-46.89200000000001 0.1Q-47.662000000000006 0.1 -48.29200000000001-0.38L-48.29200000000001-0.38Q-49.732000000000006-1.39 -49.732000000000006-3.84L-49.732000000000006-3.84Q-49.732000000000006-8.54 -45.65200000000001-13.39L-45.65200000000001-13.39Q-43.342000000000006-16.08 -39.982000000000006-16.9L-39.982000000000006-16.9Q-39.07200000000001-17.14 -38.25200000000001-17.14L-38.25200000000001-17.14Q-36.05200000000001-17.14 -34.51200000000001-15.6L-34.51200000000001-15.6Q-34.03200000000001-15.07 -34.22200000000001-14.59Q-34.412000000000006-14.11 -35.04200000000001-14.21L-35.04200000000001-14.21Q-35.57200000000001-15.94 -37.342000000000006-15.94L-37.342000000000006-15.94Q-39.412000000000006-15.94 -42.43200000000001-12.67L-42.43200000000001-12.67Q-44.162000000000006-10.75 -45.65200000000001-8.16L-45.65200000000001-8.16Q-47.522000000000006-5.04 -47.522000000000006-3.17Q-47.522000000000006-1.3 -46.32200000000001-1.3L-46.32200000000001-1.3Q-43.44200000000001-1.3 -38.78200000000001-10.13L-38.78200000000001-10.13Q-37.87200000000001-11.9 -37.25200000000001-12.55Q-36.62200000000001-13.2 -35.662000000000006-13.2L-35.662000000000006-13.2Q-35.47200000000001-13.2 -34.68200000000001-13.06Q-33.89200000000001-12.91 -33.50200000000001-13.01L-33.50200000000001-13.01ZM-32.49200000000001-3.84L-32.49200000000001-3.84Q-32.49200000000001-7.82 -28.65200000000001-17.18L-28.65200000000001-17.18L-31.15200000000001-17.18Q-31.39200000000001-17.18 -31.46200000000001-17.45Q-31.53200000000001-17.71 -31.41200000000001-17.98Q-31.29200000000001-18.24 -31.05200000000001-18.24L-31.05200000000001-18.24L-28.17200000000001-18.24Q-26.452000000000012-22.03 -24.96200000000001-24.58Q-23.47200000000001-27.12 -22.22200000000001-28.01Q-20.97200000000001-28.9 -20.42200000000001-28.9Q-19.87200000000001-28.9 -19.632000000000012-28.8L-19.632000000000012-28.8Q-18.53200000000001-28.27 -18.53200000000001-26.62Q-18.53200000000001-24.96 -19.632000000000012-22.61Q-20.73200000000001-20.26 -21.79200000000001-18.24L-21.79200000000001-18.24L-19.49200000000001-18.24Q-19.25200000000001-18.24 -19.17200000000001-17.98Q-19.10200000000001-17.71 -19.22200000000001-17.45Q-19.342000000000013-17.18 -19.58200000000001-17.18L-19.58200000000001-17.18L-22.37200000000001-17.18Q-25.01200000000001-12.72 -28.75200000000001-9.26L-28.75200000000001-9.26L-29.85200000000001-4.37Q-30.00200000000001-3.74 -30.00200000000001-3.14Q-30.00200000000001-2.54 -29.66200000000001-1.92Q-29.33200000000001-1.3 -28.61200000000001-1.3L-28.61200000000001-1.3Q-27.79200000000001-1.3 -26.78200000000001-1.87L-26.78200000000001-1.87Q-24.48200000000001-3.6 -21.69200000000001-9.12L-21.69200000000001-9.12Q-21.50200000000001-9.55 -21.24200000000001-9.65Q-20.97200000000001-9.74 -20.93200000000001-9.53Q-20.882000000000012-9.31 -21.07200000000001-8.83L-21.07200000000001-8.83Q-22.652000000000008-5.52 -23.57200000000001-4.13L-23.57200000000001-4.13Q-26.16200000000001 0.05 -29.09200000000001 0.05L-29.09200000000001 0.05Q-30.57200000000001 0.05 -31.53200000000001-1.06Q-32.49200000000001-2.16 -32.49200000000001-3.84ZM-25.25200000000001-18.24L-22.85200000000001-18.24Q-19.68200000000001-23.9 -19.68200000000001-26.11L-19.68200000000001-26.11Q-19.68200000000001-27.07 -20.01200000000001-27.07L-20.01200000000001-27.07Q-20.54200000000001-27.07 -21.62200000000001-25.54Q-22.702000000000012-24 -25.25200000000001-18.24L-25.25200000000001-18.24ZM-23.47200000000001-17.18L-23.47200000000001-17.18L-25.73200000000001-17.18Q-26.30200000000001-15.84 -28.32200000000001-10.8L-28.32200000000001-10.8Q-25.73200000000001-13.49 -23.47200000000001-17.18ZM-15.122000000000009-18.67Q-15.792000000000009-18.1 -16.61200000000001-18.1Q-17.42200000000001-18.1 -17.902000000000008-18.67Q-18.38200000000001-19.25 -18.29200000000001-20.06L-18.29200000000001-20.06Q-18.14200000000001-20.88 -17.47200000000001-21.46Q-16.80200000000001-22.03 -15.98200000000001-22.03Q-15.17200000000001-22.03 -14.66200000000001-21.46Q-14.16200000000001-20.88 -14.302000000000008-20.06Q-14.452000000000009-19.25 -15.122000000000009-18.67ZM-19.82200000000001-1.06L-19.82200000000001-1.06Q-18.91200000000001-1.06 -17.902000000000008-1.97L-17.902000000000008-1.97Q-16.13200000000001-3.74 -13.39200000000001-9.22L-13.39200000000001-9.22Q-13.052000000000008-9.94 -12.722000000000008-9.65L-12.722000000000008-9.65Q-12.622000000000009-9.55 -12.622000000000009-9.34Q-12.622000000000009-9.12 -13.01200000000001-8.28Q-13.39200000000001-7.44 -13.702000000000009-6.77Q-14.01200000000001-6.1 -14.90200000000001-4.58Q-15.792000000000009-3.07 -16.512000000000008-2.26L-16.512000000000008-2.26Q-18.48200000000001 0 -20.23200000000001 0Q-21.98200000000001 0 -22.75200000000001-1.06Q-23.52200000000001-2.11 -23.52200000000001-3.41Q-23.52200000000001-4.7 -22.89200000000001-6.24L-22.89200000000001-6.24L-19.82200000000001-14.06Q-19.73200000000001-14.35 -19.73200000000001-14.83Q-19.73200000000001-15.31 -20.30200000000001-16.08L-20.30200000000001-16.08L-17.66200000000001-16.13Q-16.56200000000001-16.13 -16.372000000000007-15.72Q-16.17200000000001-15.31 -16.652000000000008-14.45L-16.652000000000008-14.45L-20.492000000000008-5.47Q-21.31200000000001-3.7 -21.31200000000001-2.45L-21.31200000000001-2.45Q-21.31200000000001-1.06 -19.82200000000001-1.06ZM 1.1499999999999915-15.74L 1.1499999999999915-15.74Q-4.750000000000009-5.38 -4.750000000000009-2.21L-4.750000000000009-2.21Q-4.750000000000009-0.96 -3.8400000000000087-0.96L-3.8400000000000087-0.96Q-1.3900000000000095-0.96  2.7399999999999913-9.26L 2.7399999999999913-9.26Q 3.0199999999999925-9.94  3.3099999999999916-9.79Q 3.5999999999999908-9.65  3.5999999999999908-9.41Q 3.5999999999999908-9.17  3.4099999999999895-8.83L 3.4099999999999895-8.83Q 0.8599999999999923-3.7 -0.8900000000000095-1.75Q-2.6400000000000095 0.19 -4.3900000000000095 0.19Q-6.1400000000000095 0.19 -7.060000000000009-1.15L-7.060000000000009-1.15Q-7.54000000000001-1.78 -7.54000000000001-2.86Q-7.54000000000001-3.94 -7.060000000000009-5.47Q-6.580000000000009-7.01 -4.420000000000009-10.46L-4.420000000000009-10.46Q-3.8900000000000095-11.33 -3.8900000000000095-11.83Q-3.8900000000000095-12.34 -4.700000000000008-12.34Q-5.5200000000000085-12.34 -7.820000000000009-10.18L-7.820000000000009-10.18Q-11.280000000000008-7.01 -14.500000000000009-0.67L-14.500000000000009-0.67Q-14.780000000000008-0.19 -15.14000000000001-0.07Q-15.500000000000009 0.05-16.56000000000001 0.1Q-17.620000000000008 0.14-17.95000000000001 0.34L-17.95000000000001 0.34Q-17.18000000000001-1.2 -14.930000000000009-5.95L-14.930000000000009-5.95Q-10.90000000000001-14.35 -9.65000000000001-15.55L-9.65000000000001-15.55Q-9.07000000000001-16.13 -8.06000000000001-16.13L-8.06000000000001-16.13Q-7.870000000000008-16.13 -7.080000000000009-15.98Q-6.29000000000001-15.84 -5.900000000000009-15.94L-5.900000000000009-15.94Q-7.680000000000009-14.98 -11.710000000000008-6.91L-11.710000000000008-6.91Q-9.460000000000008-9.7 -7.610000000000008-11.35Q-5.760000000000009-13.01 -3.170000000000009-14.42Q-0.580000000000009-15.84  0.6199999999999903-15.84L 0.6199999999999903-15.84Q 0.9099999999999895-15.84  1.1499999999999915-15.74Z"></path><path text="Make people happy" fill="rgba(51, 85, 68, 1)" space="preserve" text-anchor="middle" offset="0.5" font-scale="contain" font-size="48" font-family="Gruppo" transform="matrix(0.4636945426464081, 0.3308837413787842, -0.3308837413787842, 0.4636945426464081, 329.9841003417969, 269.5361328125)" font-weight="400" font-style="normal" letter-spacing="2" path="M-107.48046875 0C-261.09814383497326 -450.9576712848008 435.01408397938724 -387.7534363899658 118.05269767828895 35.01737320401185" stroke="#000000" stroke-width="0" data-fl-textpath="" d="M-136.90644585472194-218.45592737113225L-110.82744500581683-221.28297790531218L-123.5111371818711-244.24447726365332Q-123.82901257438535-244.80399065476556 -123.87605114465303-245.23409223916997Q-123.90960593702486-245.6684585314958 -123.74827221247229-245.97905703329835L-123.74827221247229-245.97905703329835Q-123.54084313804755-246.37839796418734 -123.08769387870704-246.46980774899825Q-122.62567037645792-246.55660799882196 -122.14646125939112-246.3076931095123L-122.14646125939112-246.3076931095123L-101.55821771133577-235.61357193917024Q-100.95476919354795-235.30012356003954 -100.60255809372846-234.9368779941148Q-100.25495652889623-234.56475818528148 -100.56840490802695-233.96130966749365L-100.56840490802695-233.96130966749365Q-100.83575793728549-233.44660357879226 -101.35391229664474-233.49037640000574Q-101.87206665600402-233.53414922121925 -102.47551517379185-233.84759760034996L-102.47551517379185-233.84759760034996L-120.94281466668113-243.44003990874728L-109.19694236161504-221.7319335013915Q-108.7497464231948-220.85733885662148 -109.01709945245335-220.34263276792007L-109.01709945245335-220.34263276792007Q-109.30750015664798-219.78355546467543 -110.25713540867483-219.69085763240327L-110.25713540867483-219.69085763240327L-134.77141962833028-216.81731118281363L-116.304120135441-207.2248688744163Q-115.70067161765317-206.9114204952856 -115.36689865778254-206.51267795772634Q-115.03312569791197-206.11393542016705 -115.30508826215774-205.59035508855703L-115.30508826215774-205.59035508855703Q-115.61853664128844-204.98690657076924 -116.11825286069883-205.06617636361725Q-116.61796908010925-205.14544615646534 -117.22141759789707-205.45889453559604L-117.22141759789707-205.45889453559604L-137.80966114595242-216.15301570593806Q-138.28887026301922-216.40193059524773 -138.4835407360098-216.82983643412547Q-138.66933696609175-217.25313273801595 -138.461907891667-217.65247366890495L-138.461907891667-217.65247366890495Q-138.30979323708885-217.94532368489024 -137.93974239065022-218.15877712489544Q-137.56081730130296-218.36762102991344 -136.90644585472194-218.45592737113225L-136.90644585472194-218.45592737113225ZM-97.61606503266106-246.5238156414718L-97.61606503266106-246.5238156414718Q-96.75610538544777-245.80627163225367 -95.7920262693043-245.7442115177193Q-94.83562536429669-245.6885580461243 -93.79310215293836-246.17316650021797Q-92.74930737338363-246.64369010023643 -91.67705007393322-247.58537172572102Q-90.59838613154335-248.53473156234148 -89.51566347477673-249.83234924429723L-89.51566347477673-249.83234924429723Q-88.19589502925058-251.41406073827883 -87.39350028187815-252.82836716525605Q-86.59751217744517-254.23499538109746 -86.17423452582396-255.44467964967257Q-85.75736351714221-256.6466857071118 -85.63128577517084-257.6094444531014Q-85.51288624433529-258.5786098420304 -85.54315987126094-259.30715874739826L-85.54315987126094-259.30715874739826L-89.15959731623826-262.32468757187803Q-90.91213273155144-260.7394053830949 -92.74286823229188-258.9979670332448Q-94.58128194416817-257.2629353263341 -96.21497589372726-255.30499148669674L-96.21497589372726-255.30499148669674Q-97.37457826576724-253.91523527111096 -98.12307912931627-252.6903897880943Q-98.86517334992585-251.47322251621347 -99.10016402186783-250.37993418091472Q-99.32874805087037-249.29432405675186 -98.98621090376835-248.33127249901716Q-98.64494532486268-247.38230579535775 -97.61606503266106-246.5238156414718ZM-100.28765959411852-261.72474595836985L-100.28765959411852-261.72474595836985Q-101.72915425549418-259.99714845280744 -102.66207859217575-258.69175495580083Q-103.58859628591792-257.39403966993 -104.18074578056991-256.403404027535Q-104.75881042114663-255.41403995333638 -105.09728613657104-254.68059998301305Q-105.42935520905598-253.9548382238255 -105.64610470863092-253.36728426508296L-105.64610470863092-253.36728426508296Q-105.82549071093544-253.15229435327961 -106.18783341034604-253.15508149946Q-106.5565827526961-253.1501904345045 -106.80996372017859-253.36160965150628L-106.80996372017859-253.36160965150628Q-107.04031005425358-253.5538089396897 -106.96841900785071-253.8584918526453L-106.96841900785071-253.8584918526453Q-106.92347490335953-254.0684442936206 -106.64265897439014-254.73278036372147Q-106.36184304542077-255.39711643382236 -105.72352668003873-256.5055171816051Q-105.09161695759614-257.60623971825214 -104.0241043172286-259.15097813062346Q-102.95532010866474-260.68163168891954 -101.33443944498454-262.6242191062853L-101.33443944498454-262.6242191062853Q-100.56564229225086-263.5456044425852 -99.70089190129805-264.347855501386Q-98.8361415103452-265.1501065601867 -97.86272219920937-265.6923748007355Q-96.88289624513406-266.24232125241997 -95.76882360107548-266.4848952488837Q-94.64707274588108-266.72106260240787 -93.38476616167901-266.5013307488225Q-92.11605293453745-266.289277106373 -90.66584978631629-265.5611213339661Q-89.20156178401987-264.83423712975565 -87.56610281208745-263.46962218365337L-87.56610281208745-263.46962218365337L-82.38331029540021-259.14513819952634Q-82.16832038359689-258.96575219722183 -81.96614375767248-258.77100977264564Q-81.77037377468749-258.56858913693367 -81.64248492568616-258.33164095208906Q-81.52100271962425-258.0870145561088 -81.52755576843623-257.8450289004362Q-81.5277021743088-257.6107214558995 -81.73912139131058-257.35734048841704L-81.73912139131058-257.35734048841704Q-82.08508011004074-256.94271708708203 -82.58944531448547-257.1030783683983Q-83.09381051893024-257.26343964971454 -83.66967635411771-257.7439378701731L-83.66967635411771-257.7439378701731L-84.91354655812265-258.7818140263636Q-84.76932253039837-258.0493528124915 -84.75841523816361-257.0634618291794Q-84.75518615706471-256.08397748880674 -85.085004904902-254.86143113239524Q-85.42250186387513-253.6452914189232 -86.18009891262894-252.20662998838458Q-86.93769596138276-250.7679685578459 -88.33434412218229-249.09411853023434L-88.33434412218229-249.09411853023434Q-89.64129928182955-247.52776345852442 -91.01843470206562-246.3455629533937Q-92.40965497637696-245.16209088006667 -93.75441556821318-244.5649988012008Q-95.11326101412465-243.96663515413854 -96.39869983564927-244.04938197351777Q-97.6841386571739-244.132128792897 -98.82051390527717-245.08031194793523L-98.82051390527717-245.08031194793523Q-100.13348800950463-246.1758478905807 -100.54752578734936-247.45903638745767Q-100.9602919969977-248.72814003025937 -100.6841231231962-250.1517378502715Q-100.4066826811983-251.5612508162083 -99.53254329329557-253.04593271160445Q-98.65840390539284-254.53061460700053 -97.39629524632171-256.0432222007596L-97.39629524632171-256.0432222007596Q-96.4481120912835-257.1795974488629 -95.4154686137511-258.24549962463226Q-94.38409670441511-259.3254866544769 -93.37204232781254-260.22623408788957Q-92.36639459414934-261.1193033101664 -91.4261824619921-261.79347031213575Q-90.48469876163843-262.45355246002975 -89.7047503068824-262.7795592205788L-89.7047503068824-262.7795592205788Q-91.53984276834646-264.3107468831067 -93.05680188822745-264.7559828077691Q-94.58016765104784-265.19354052129563 -95.87480026169229-264.9062664301284Q-97.16943287233674-264.6189923389612 -98.26086129864798-263.73237856158136Q-99.34588308201975-262.85344299533733 -100.28765959411852-261.72474595836985ZM-76.29804999739032-277.1557007160455L-62.141909937419044-276.9007524811498Q-61.916279913606004-276.8836910523078 -61.7675573080503-276.7873500610491Q-61.62535247108744-276.6985931776858 -61.47117843624149-276.5805662020432L-61.47117843624149-276.5805662020432Q-61.262609841270475-276.3378747493882 -61.30562261170674-276.0503857903317Q-61.348635382143044-275.76289683127516 -61.636831482170905-275.515221624747L-61.636831482170905-275.515221624747Q-61.76789399499914-275.3762158056921 -61.96200151515059-275.3412548185684Q-62.170210911790306-275.30736017074736 -62.430562457172826-275.3341383860901L-62.430562457172826-275.3341383860901L-76.91329808775767-275.6776040387948L-78.3162045485688-271.84804094854366L-73.71465992202045-266.493660774342Q-73.36270041800682-266.0841189479866 -73.44138131653813-265.7000495321172Q-73.50596033858109-265.3149137769451 -73.7562358991316-265.0998274133812L-73.7562358991316-265.0998274133812Q-73.99134324389115-264.897776587003 -74.38939480347184-264.8853284580116Q-74.78851270235513-264.85877845253185 -75.14047220636876-265.2683202788872L-75.14047220636876-265.2683202788872L-90.81570567216032-283.508099767492Q-91.12204079602402-283.8645528385791 -91.01408980521349-284.2605914523316Q-90.91265658299575-284.6642141739796 -90.68513334613166-284.8597472317649L-90.68513334613166-284.8597472317649Q-90.43485778558116-285.07483359532876 -90.06607631827977-285.0753125264372Q-89.69622851167571-285.0898933340339 -89.38989338781201-284.7334402629468L-89.38989338781201-284.7334402629468L-79.30690537468124-273.00082534865504L-73.7406757017236-289.031635909194Q-73.68012257133692-289.17597342476205 -73.55877684500942-289.2802577222476L-73.55877684500942-289.2802577222476Q-73.32366950024985-289.4823085486258 -73.02207866470508-289.4382294388869Q-72.72155416846284-289.38004845265965 -72.55209218504889-289.1828616473775L-72.55209218504889-289.1828616473775Q-72.35655912726354-288.9553384105134 -72.48287735177291-288.5039586301102L-72.48287735177291-288.5039586301102L-76.29804999739032-277.1557007160455ZM-55.6832217937005-299.8684125606087L-55.6832217937005-299.8684125606087Q-57.54017856062296-298.72643551802827 -58.77216759376479-297.5226901038238Q-60.017913204014405-296.32222441312547 -60.59678366607673-294.99184514834724Q-61.16713597783213-293.66670431036994 -61.037861560383774-292.19657230099347Q-60.90530741942928-290.74019686872475 -59.99518783034182-289.06936404238957L-59.99518783034182-289.06936404238957L-44.93509808759448-298.33090262625325L-45.600378291299606-299.4127077152402Q-46.21327422699649-300.4093313011573 -47.12763080098904-301.0562100035402Q-48.033469224674604-301.7083271327239 -49.28536339553058-301.8541386033867Q-50.5235009892787-301.9966703505433 -52.108377667325584-301.5385591027189Q-53.70701092248025-301.0837275784008 -55.6832217937005-299.8684125606087ZM-48.39857594463699-285.6939836531104L-48.39857594463699-285.6939836531104Q-46.49902842617959-286.86215282969505 -45.23169142564349-287.97023988722805Q-43.955836274800376-289.0835653715618 -43.15171346030242-290.04766417313976Q-42.33907249549746-291.0170014015184 -41.91170699780149-291.77288415127464Q-41.48434150010549-292.5287669010309 -41.27325513763533-292.9872890352612L-41.27325513763533-292.9872890352612Q-41.171675017034744-293.1084561888086 -41.13760241580681-293.1294098960119L-41.13760241580681-293.1294098960119Q-40.91613050782523-293.2656089928334 -40.5977705310509-293.167900624777Q-40.276130830770384-293.08394883382846 -40.12945488034721-292.84544062523287L-40.12945488034721-292.84544062523287Q-39.99325578352567-292.6239687172513 -40.10863813527921-292.35343791881274L-40.10863813527921-292.35343791881274Q-40.17751232890846-292.0645497995487 -40.53477392085392-291.32829973678423Q-40.886797085998566-290.58353152371285 -41.74990926956221-289.5244577025918Q-42.60778302632505-288.45686573116376 -44.042886646623-287.16342937826204Q-45.477990266920926-285.86999302536026 -47.692709346736706-284.508002057145L-47.692709346736706-284.508002057145Q-50.009646230236314-283.08314996731986 -51.984307811019534-282.66708309603746Q-53.95896939180275-282.25101622475506 -55.60647892123397-282.65833962260155Q-57.267745027773046-283.06894274395427 -58.61497797698476-284.2479098260046Q-59.970729076503446-285.42163848125415 -61.03936814387232-287.1593411438788L-61.03936814387232-287.1593411438788Q-62.46422023369753-289.47627802737844 -62.679814558246775-291.4685679378137Q-62.881652305688206-293.45757812474284 -62.16640013062387-295.17705895512904Q-61.45114795555956-296.89653978551524 -59.940656348665144-298.3537340434993Q-58.4164081646629-299.8076485779771 -56.40612469221473-301.0439173029725L-56.40612469221473-301.0439173029725Q-52.24926734240664-303.6002695817765 -49.21352758316259-303.28359291047786Q-46.16926967361151-302.97215466598004 -44.35153557372426-300.01635650945667L-44.35153557372426-300.01635650945667Q-44.1786674892969-299.7352575493262 -44.01172116879873-299.3683394030427Q-43.83625669799356-299.0066596835601 -43.7243366859266-298.6528604313012Q-43.60389852355267-298.30429960584314 -43.55811935660181-298.0389615801603Q-43.520858339957925-297.76838512767654 -43.597521692720775-297.7212392864691L-43.597521692720775-297.7212392864691L-49.466527254232616-294.11196322069867L-59.498858304474666-288.2241084587035Q-58.31429051035924-286.39334382578517 -57.07182609716409-285.3847397498745Q-55.83264140747512-284.362379096856 -54.46613953008412-284.08747435137695Q-53.104876079493934-283.8210877562049 -51.596662754209945-284.23205316282184Q-50.09368785572677-284.6515367197457 -48.39857594463699-285.6939836531104ZM-12.856947675364552-320.5953385435216L-12.856947675364552-320.5953385435216Q-10.845566978172997-321.2328710454109 -8.923512624366126-321.3910072557234Q-6.988904179568337-321.54263233714823 -5.318018057769407-320.9707586028505Q-3.6471319359704637-320.39888486855267 -2.3241446459258697-318.9719284465199Q-1.0011573558812756-317.5449720244872 -0.20046487720516382-315.0188303905736L-0.20046487720516382-315.0188303905736Q 0.5911631583160926-312.52128658647797  0.4833226238972941-310.577869384965Q 0.3754820894784814-308.6344521834521 -0.5539491546678619-307.164942890387Q-1.4708263078233017-305.6889224684343 -3.1595459735271447-304.62914612850915Q-4.857798249170273-303.5663483075324 -7.221885514115783-302.8170210067336L-7.221885514115783-302.8170210067336Q-9.033081402582127-302.2429396069281 -10.618260447117251-301.98177414832634Q-12.212972101591674-301.71758720867285 -13.56400619260971-301.6775012397178Q-14.912018802576128-301.62788266082345 -16.02984427364605-301.7456375597762Q-17.144648263664322-301.8538598487896 -18.034159262975578-302.0125109821114L-18.034159262975578-302.0125109821114L-15.504498975650506-293.8660872986335Q-15.413854544102279-293.58010900045457 -15.332742722493322-293.2911092212241Q-15.254652381935998-293.0116420519329 -15.270951807202692-292.76519869386453Q-15.29376236135704-292.50620124480537 -15.41351599560258-292.3213795277779Q-15.54280223978742-292.1335363296988 -15.876443587662806-292.0277844928925L-15.876443587662806-292.0277844928925Q-16.210084935538177-291.9220326560863 -16.426994130219626-292.0106351462467Q-16.63739219601341-292.1117917273982 -16.80523384064493-292.3103595554252Q-16.9665643563888-292.52148147444314 -17.069762878927946-292.81397090150966Q-17.17598288251868-293.1159929385156 -17.281734719324973-293.44963428639096L-17.281734719324973-293.44963428639096L-24.206969289610328-315.29837626725856Q-24.433580368480918-316.01332201270577 -24.22709691121277-316.28857568093673Q-24.020613453944634-316.5638293491677 -23.706037325947847-316.6635382238707L-23.706037325947847-316.6635382238707Q-23.324732928375994-316.78439746593506 -23.045053278740014-316.6632393313361Q-22.765373629104033-316.5420811967372 -22.538762550233443-315.82713545128996L-22.538762550233443-315.82713545128996L-21.605124905286587-312.8815589800473Q-21.627805841156174-313.91291031453426 -21.200156482051383-314.81425155161224Q-20.77552860399824-315.7251253986296 -20.068199595257468-316.5053085011086Q-19.360870586516697-317.2854916035876 -18.443611678766644-317.93289881404576Q-17.52635277101659-318.5803060245039 -16.5416849465622-319.08123443803646Q-15.560038603159455-319.5916954615084 -14.59933014677317-319.9696362793991Q-13.638621690386884-320.34757709728973 -12.856947675364552-320.5953385435216ZM-12.439983290242665-319.27983837189873L-12.439983290242665-319.27983837189873Q-13.77803832958027-318.83474432374334 -15.30002195847132-318.14252627039053Q-16.831538197301683-317.4472867359861 -18.123377893391137-316.4923258992983Q-19.41823907053218-315.54689767254973 -20.25557817668195-314.31638427509637Q-21.105471373822624-313.0923820065306 -21.058661795635103-311.5546535313472L-21.058661795635103-311.5546535313472L-18.33932884918798-302.9753045859803Q-17.264740446409547-302.92776760443877 -16.041119932438434-302.90648761879277Q-14.817499418467335-302.8852076331467 -13.478083084871258-302.99504335272843Q-12.135645270223577-303.09534646237086 -10.670432340278737-303.3709386791015Q-9.202197929282306-303.63699828589284 -7.63884989923767-304.13252117835657L-7.63884989923767-304.13252117835657Q-5.494012662895969-304.81235441496835 -4.110804682034114-305.74382405037255Q-2.7180640912329324-306.6783151668283 -2.0257992816552957-307.9362775801859Q-1.3270233431899356-309.2067940845344 -1.3317446669997253-310.810314495724Q-1.3394874718611192-312.4233675168528 -1.98306293585361-314.45381343392296L-1.98306293585361-314.45381343392296Q-2.6477887672073592-316.5509876205682 -3.739695790881413-317.77843988100494Q-4.831602814555467-319.0058921414417 -6.199786252219269-319.5163567150434Q-7.564948208831467-320.0172886787059 -9.1668516393228-319.9081768123483Q-10.762243940926496-319.8116190369817 -12.439983290242665-319.27983837189873ZM 18.871275478983463-326.24572822801065L 18.871275478983463-326.24572822801065Q 16.713658467256586-325.93413742149227  15.105221736419793-325.31791401809454Q 13.485458364214907-324.7101586248125  12.426309797909973-323.71859202871605Q 11.377058557346892-322.7284547482459  10.91250472104619-321.32767291898836Q 10.456418894861116-319.9382177310988  10.629015606426329-318.04343268388186L 10.629015606426329-318.04343268388186L 28.127487518046195-320.5704627110581L 27.945964433514867-321.82742308027514Q 27.77873450524585-322.9854101920735  27.196032663101946-323.9419448559316Q 26.62322814669991-324.89990883541594  25.53190627940912-325.53039799628465Q 24.45191105348644-326.1524191470377  22.815346372975505-326.36064029510914Q 21.167455051096482-326.5773294532962  18.871275478983463-326.24572822801065ZM 19.934984268556676-310.3445011177846L 19.934984268556676-310.3445011177846Q 22.1420879089929-310.6632385024341  23.745023144608254-311.1776300171607Q 25.357855705965484-311.69345084751353  26.478464844198356-312.2594324367097Q 27.608971308173096-312.826843341532  28.30113680825324-313.35115901028405Q 28.99330230833339-313.87547467903596  29.368969151957316-314.2126310561099L 29.368969151957316-314.2126310561099Q 29.510282459954155-314.2835574192127  29.549871762921626-314.2892746817176L 29.549871762921626-314.2892746817176Q 29.807202232210145-314.3264368879996  30.06067628918698-314.11044868823006Q 30.322618356279463-313.9057871298285  30.362639193813926-313.6286620090563L 30.362639193813926-313.6286620090563Q 30.39980140009593-313.3713315397677  30.186563947937053-313.1687734271265L 30.186563947937053-313.1687734271265Q 30.008735735508708-312.93091395839645  29.38871014687409-312.3968088475444Q 28.770113873865697-311.8528064109505  27.557678056345324-311.2230450367827Q 26.346671554451163-310.5833863368731  24.51620571041463-309.96540996692386Q 22.685739866378086-309.34743359697467  20.112435173492813-308.9758115341546L 20.112435173492813-308.9758115341546Q 17.420362571705134-308.5870376838198  15.442677218166807-308.9884858652828Q 13.46499186462848-309.3899340467459  12.114262910572435-310.4174219019902Q 10.75220731514829-311.4533777673503  9.983236078743886-313.07006674101916Q 9.204367516597607-314.68532639906186  8.91278712884651-316.7043808504026L 8.91278712884651-316.7043808504026Q 8.524013278511696-319.3964534521903  9.116477163964412-321.310790555324Q 9.720267690785228-323.2166596483421  11.058968474547896-324.51129481376637Q 12.397669258310565-325.80592997919064  14.362301832212786-326.54431934095203Q 16.338261047483122-327.2742406925977  18.674029922563598-327.6115591803882L 18.674029922563598-327.6115591803882Q 23.50392488459442-328.3090652059889  26.164930420605053-326.8140569995496Q 28.835833282357555-325.32047810873655  29.33180580465968-321.8861060763089L 29.33180580465968-321.8861060763089Q 29.378973220325307-321.5594943268273  29.386659216665194-321.1564547190215Q 29.40424253874697-320.7548444268419  29.366621969614478-320.38567685949863Q 29.338898726223867-320.01793860778156  29.275658359460962-319.7562123079726Q 29.202520666956225-319.4930566925374  29.113444735279423-319.48019285190134L 29.113444735279423-319.48019285190134L 22.294187299133434-318.4953943854282L 10.749293886313225-317.07063612992647Q 11.110371321540889-314.9201656963308  11.850756245420676-313.5014232374991Q 12.582673159184836-312.07135413729947  13.727985369347145-311.27689838569773Q 14.87186826388323-310.4923399598378  16.419357012717363-310.27125497113036Q 17.96541644592525-310.06006730816466  19.934984268556676-310.3445011177846ZM 50.17431332213778-310.9150129144197L 50.17431332213778-310.9150129144197Q 46.944779355843735-310.96987966713067  44.72597253754629-311.64766746805134Q 42.507165719248846-312.32545526897195  41.15774731969165-313.54855378623716Q 39.808328920134464-314.77165230350244  39.2274640370683-316.4917674123311Q 38.64659915400214-318.2118825211597  38.68312036710692-320.36157231296534L 38.68312036710692-320.36157231296534Q 38.7254170278655-322.8512130485914  39.44538377369869-324.60923690647684Q 40.17534907670307-326.3670908982548  41.63467591171266-327.49246425346666Q 43.09383288061479-328.60783905150737  45.292689670908246-329.11056046121695Q 47.49154646120169-329.6132818709265  50.491113612558394-329.5623220386873L 50.491113612558394-329.5623220386873Q 53.490680763915094-329.51136220644804  55.671192014602426-328.9342394416692Q 57.85170326528976-328.3571166768903  59.282129318861244-327.19265057379243Q 60.70238694915409-326.0183557796309  61.36222109294498-324.2368903989154Q 62.022055236735866-322.45542501819995  61.97975857597729-319.9657842825739L 61.97975857597729-319.9657842825739Q 61.94323736287251-317.81609449076825  61.30427827105361-316.1167030470503Q 60.665319179234714-314.4173116033322  59.27513291388612-313.2407563995122Q 57.88494664853753-312.0642011956921  55.644396968484685-311.46217367870054Q 53.41384584560302-310.85997629560137  50.17431332213778-310.9150129144197ZM 50.19775484496783-312.2948138040438L 50.19775484496783-312.2948138040438Q 52.32744752243109-312.25863232315396  53.88248973329677-312.5422583488039Q 55.437701810269914-312.835882931625  56.53705704394751-313.377286727498Q 57.636582143732575-313.9286890805422  58.319225432262044-314.6671998391813Q 58.991870163620334-315.4058804639278  59.39676211075354-316.2791287168014Q 59.8014841917793-317.1423784125037  59.94760271521385-318.0900330843696Q 60.083722681477205-319.037857622343  60.10002982779376-319.99771911077715L 60.10002982779376-319.99771911077715Q 60.13706063922095-322.17740457409633  59.60313095207637-323.7166963233063Q 59.069031398824336-325.245989515345  57.885511684598214-326.2262349366748Q 56.711990527543286-327.2063104918972  54.86973155960174-327.6776722373104Q 53.02730272555273-328.1390354255524  50.467672089728346-328.1825211490632L 50.467672089728346-328.1825211490632Q 47.88804433956158-328.22634660478894  46.04100557744185-327.82766401020126Q 44.19379694921466-327.4189828584423  42.98766149952661-326.47933543679636Q 41.771527492667374-325.53985788125794  41.18578864274623-324.0295896932552Q 40.59987992671764-322.50932294808126  40.562849115290454-320.3296374847621L 40.562849115290454-320.3296374847621Q 40.5465419689739-319.3697759963279  40.66038593199026-318.41770480566794Q 40.774229895006634-317.46563361500796  41.13939671616242-316.58930422903086Q 41.51439222838196-315.70280641977513  42.17155560079181-314.9415336027359Q 42.82871897320167-314.1802607856966  43.89888077956462-313.59199748733266Q 44.97921100920623-313.0135628800325  46.523551655301674-312.6672798038975Q 48.06806216750458-312.3309952849337  50.19775484496783-312.2948138040438ZM 86.09888615168984-325.7811809314085L 86.09888615168984-325.7811809314085Q 88.17121306888751-325.3842412026612  89.93675360015303-324.6082472384716Q 91.71023435506049-323.82055058875625  92.90735165706805-322.5221630636952Q 94.10446895907562-321.22377553863413  94.58855304375749-319.3390573636919Q 95.07263712843934-317.4543391887496  94.57411092882772-314.85165372402264L 94.57411092882772-314.85165372402264Q 94.08122842204192-312.27843262304737  93.06116402432315-310.62073282377526Q 92.0410996266044-308.9630330245032  90.52414830145278-308.11323382638597Q 89.0151371999431-307.2517319427429  87.02553491815866-307.12373678534175Q 85.02611118179034-306.99762285888255  82.59039044498928-307.4641681324813L 82.59039044498928-307.4641681324813Q 80.72431407405301-307.82160201144814  79.20597110688126-308.3466111866442Q 77.67780668512565-308.87350159278225  76.47062313407329-309.4814554348366Q 75.261558352079-310.0795878223071  74.33460392232675-310.71532006560034Q 73.40576826163255-311.3412308543097  72.69906359448362-311.90423042218686L 72.69906359448362-311.90423042218686L 71.04526632809745-303.535935816851Q 70.98882939983955-303.2412921793347  70.92257101699774-302.94852977276037Q 70.85819386509789-302.66558882077  70.72653246217861-302.4566264438182Q 70.58316837373351-302.2397238432245  70.3898664126206-302.1342044050631Q 70.18674299692384-302.0305661978436  69.84299208648821-302.09640928081114L 69.84299208648821-302.09640928081114Q 69.49924117605256-302.16225236377875  69.35067345767177-302.3434363394916Q 69.21380842481679-302.53256053884644  69.16074342158436-302.78708775827874Q 69.11938110387774-303.049555201353  69.16787780849373-303.355901524395Q 69.21825574405162-303.67206930202093  69.28409882701919-304.0158202124566L 69.28409882701919-304.0158202124566L 73.5958801459241-326.52659411869854Q 73.73697246656889-327.2632032124892  74.04959781375601-327.4069578377926Q 74.36222316094312-327.5507124630961  74.686331162211-327.48863184201235L 74.686331162211-327.48863184201235Q 75.07918934556601-327.41338260433514  75.26745818215653-327.17368520099325Q 75.45572701874706-326.93398779765135  75.31463469810225-326.1973787038607L 75.31463469810225-326.1973787038607L 74.7333343370457-323.1625492374432Q 75.20439838322922-324.0803175439309  76.00958715369366-324.66936002450257Q 76.81665715510003-325.26822395965803  77.810114762155-325.61756903688774Q 78.80357236920996-325.96691411411746  79.91842986171025-326.0995518591826Q 81.03328735421054-326.23218960424776  82.13768806080768-326.20392161408705Q 83.24396999834676-326.18547507851025  84.26874843707942-326.0604584735786Q 85.29352687581208-325.9354418686469  86.09888615168984-325.7811809314085ZM 85.83927628170342-324.4258201988338L 85.83927628170342-324.4258201988338Q 84.45068872349316-324.67143085247824  82.78270264373126-324.78728609716114Q 81.1048951093855-324.9050225727861  79.51421000365607-324.68025403759805Q 77.92540612886857-324.4653069569938  76.60322269589759-323.78183715548323Q 75.27309903928462-323.1100700394984  74.58217576735613-321.7355064606459L 74.58217576735613-321.7355064606459L 72.8890679196186-312.89619733515826Q 73.81142928773858-312.3427991904199  74.87735001273279-311.74153967238476Q 75.94327073772702-311.14028015434974  77.17344435995676-310.5991952634406Q 78.40173675124456-310.04828891794756  79.82144987270334-309.593080556032Q 81.23928176322018-309.1280507395327  82.85000031497572-308.81952886505604L 82.85000031497572-308.81952886505604Q 85.05982759634763-308.3962519031217  86.7196781840384-308.55686331785495Q 88.38935022631304-308.71559350164625  89.59702336628719-309.4922694874891Q 90.81639919178714-310.27688569697386  91.57565734592853-311.6892691630942Q 92.33679673101184-313.11147408379827  92.73749892164307-315.2034439101637L 92.73749892164307-315.2034439101637Q 93.1513697288678-317.36416391861627  92.77551691303775-318.9634245793069Q 92.3996640972077-320.5626852399975  91.4395076048358-321.6629577108683Q 90.47746988152198-322.75340872715515  89.0168097422308-323.4200960282836Q 87.56785228846545-324.094723553054  85.83927628170342-324.4258201988338ZM 110.35629495253959-325.66011093093465L 103.3325928042438-303.93739222143546Q 103.12338923609482-303.2903730045077  102.81396132493423-302.88595444930195Q 102.51404840225783-302.47845937103506  101.95266408168821-302.6599742316349L 101.95266408168821-302.6599742316349Q 101.61963948474013-302.7676525387704  101.47884950333294-302.9498013272247Q 101.33805952192573-303.131950115679  101.32010813290997-303.3689685698812Q 101.3021567438942-303.6059870240834  101.35975442414991-303.8816362708249Q 101.42994361595088-304.1637239829896  101.52839235390333-304.468203614485L 101.52839235390333-304.468203614485L 108.5520945021991-326.19092232398424Q 108.6597728093346-326.52394692093225  108.7741750011945-326.81275851782135Q 108.89501565847762-327.0889786031653  109.06092557372325-327.2770581076924Q 109.2332739543921-327.45254610067434  109.46664504693095-327.52422547823335Q 109.70001613946975-327.5959048557923  110.03304073641783-327.48822654865677L 110.03304073641783-327.48822654865677Q 110.2994604139763-327.4020839029484  110.41814389535404-327.2165731721319Q 110.54634236521598-327.02798591825433  110.5581407081097-326.77193748708373Q 110.5825305625487-326.5223275213363  110.51234137074773-326.2402398091715Q 110.44859064437-325.9455605854615  110.35629495253959-325.66011093093465L 110.35629495253959-325.66011093093465ZM 128.3861706315876-310.5180204082694L 128.3861706315876-310.5180204082694Q 126.40967371408665-311.4377268479061  124.72618597625933-311.80196445797003Q 123.03785057568953-312.1794874045346  121.6087736597608-311.9290095245538Q 120.18876324345365-311.674312807694  119.0334878003935-310.75597809166595Q 117.891497693834-309.84249103838044  116.99925369059555-308.162044479074L 116.99925369059555-308.162044479074L 133.02882502152065-300.70314087688257L 133.56461730516222-301.8545863288212Q 134.0582212200131-302.9153667845442  134.09383543520823-304.03484506824424Q 134.13851615002494-305.15010451506527  133.5700019640574-306.2749563365749Q 133.00633544083232-307.3865228215839  131.7503908236826-308.4562438687045Q 130.48959854379044-309.53925025232576  128.3861706315876-310.5180204082694ZM 120.57632587691846-296.62605060885045L 120.57632587691846-296.62605060885045Q 122.59815529252722-295.68524998481837  124.22132166232075-295.23878505229703Q 125.8535545317358-294.78810128289643  127.10122146186461-294.64871967915Q 128.35795489161498-294.50511923852446  129.2242000117747-294.56528061982107Q 130.0904451319344-294.62544200111756  130.58936554865397-294.7021128416005L 130.58936554865397-294.7021128416005Q 130.7464572273728-294.68416278652234  130.78272322585903-294.66728743900603L 130.78272322585903-294.66728743900603Q 131.0184522160197-294.5575976801503  131.11244428571743-294.23812077827176Q 131.21972169191577-293.9234915391356  131.10159425930186-293.6696295497319L 131.10159425930186-293.6696295497319Q 130.9919045004461-293.43390055957116  130.70258828258443-293.38102215110223L 130.70258828258443-293.38102215110223Q 130.42359621607116-293.27922123350976  129.61237891950427-293.1713949948166Q 128.79694278605834-293.0545022565019  127.43751667531855-293.1907397309313Q 126.07387172769968-293.31791070573905  124.20357750883517-293.8021622260071Q 122.33328328997062-294.2864137462752  119.97599338836399-295.38331133483274L 119.97599338836399-295.38331133483274Q 117.5099054912986-296.5308349659391  116.07415147097804-297.94893594722834Q 114.6383974506575-299.3670369285175  114.06996325805852-300.9661249713357Q 113.49668140271712-302.5784983506547  113.73757802909476-304.3524681405327Q 113.96940815585086-306.1306567672898  114.83005087918065-307.9802226900888L 114.83005087918065-307.9802226900888Q 115.97757451028701-310.44631058715424  117.52090295285274-311.72452704705756Q 119.06907905816097-312.9894581704602  120.8979737208355-313.3406622604714Q 122.72686838351-313.6918663504827  124.77534846548869-313.2349972732443Q 126.8286762102098-312.76484285950517  128.9683701208989-311.76919735604525L 128.9683701208989-311.76919735604525Q 133.39282193622213-309.71040495906027  134.80221118513404-307.003077504715Q 136.22066693366753-304.29153121349066  134.7567305366311-301.145455844808L 134.7567305366311-301.145455844808Q 134.61750891962186-300.8462613572963  134.40342294635133-300.5046955568291Q 134.1984034727024-300.1589109194829  133.96492684846186-299.8704864650182Q 133.74051672384292-299.5778431736744  133.5443808056506-299.39336905192596Q 133.3391783878367-299.2131137670566  133.25757989124264-299.25108329896824L 133.25757989124264-299.25108329896824L 127.01076165198505-302.15786190864577L 116.56767467720378-307.2819651899188Q 115.69330073567487-305.28437408802256  115.53678084687856-303.6917342905759Q 115.36697562158163-302.0942468303866  115.89096907946973-300.8026080046731Q 116.4191813742369-299.5200356785812  117.59352749479251-298.48828416337227Q 118.77209245222723-297.46559914778487  120.57632587691846-296.62605060885045ZM 170.0693172466569-272.99867716285837L 164.71401561718395-266.9082876467959Q 164.50931234897968-266.6754860746653  164.28868322760806-266.4700042243651Q 164.05394104687082-266.263615977164  163.83447687532652-266.15032221119094Q 163.60840937254977-266.0295187170846  163.3741842976654-266.035732757269Q 163.13995922278104-266.0419467974535  162.92968683505015-266.22684007196057L 162.92968683505015-266.22684007196057Q 162.66684635038655-266.4579566650944  162.6232114843408-266.69606588050857Q 162.58708634642832-266.9275717646904  162.66295928654012-267.1804418834447Q 162.7322288954195-267.4258022740657  162.92191270735728-267.6718105086611Q 163.10499318806268-267.9103090151233  163.30969645626695-268.1431105872539L 163.30969645626695-268.1431105872539L 168.6649980857399-274.2335001033164Q 169.87340770126835-275.6077803517004  170.5545850299109-276.8064869241957Q 171.2423656897858-278.01270322482424  171.2500003094074-279.2177516523089Q 171.2585413259298-280.4086870204279  170.49021623336756-281.6701847620585Q 169.7284944720377-282.93919223182246  168.03880564205735-284.4249417591115L 168.03880564205735-284.4249417591115Q 167.0174826159359-285.3229948067173  165.69318201190356-286.19450379127204Q 164.3622780766388-287.0585030476935  162.93271346393612-287.5831410353652Q 161.51065857936666-288.10117569180443  160.08368534256158-288.1441568672426Q 158.64259904639087-288.1862316457799  157.4159307547239-287.4272290751525L 157.4159307547239-287.4272290751525L 150.4230029796168-279.47442698204503Q 150.21829971141253-279.24162540991443  149.9976705900409-279.03614355961423Q 149.76292840930367-278.82975531241317  149.54346423775937-278.7164615464401Q 149.3098870068494-278.60226138356614  149.08317166009826-278.6018720925182Q 148.8489465852139-278.6080861327026  148.638674197483-278.7929794072097L 148.638674197483-278.7929794072097Q 148.3908531690859-279.0108893378788  148.33970857490692-279.25560188452533Q 148.28856398072796-279.500314431172  148.371946648973-279.74658121869385Q 148.44121625785237-279.99194160931484  148.63090006979013-280.23794984391026Q 148.81398055049553-280.47644835037244  149.0186838186998-280.70924992250303L 149.0186838186998-280.70924992250303L 164.0610723660974-297.81641061003745Q 164.24596564060445-298.0266829977683  164.4524817026104-298.23125845116766Q 164.66560109584879-298.44334363270025  164.90008472365957-298.54343073620856Q 165.12705862333718-298.6501211709493  165.3829064857204-298.63821019643325Q 165.63215101687126-298.6187894937841  165.8799720452684-298.40087956311504L 165.8799720452684-298.40087956311504Q 166.09024443299927-298.21598628860795  166.13297290214416-297.9919901325594Q 166.1681916431558-297.7745973077432  166.08480897491074-297.5283305202213Q 166.0005199097649-297.2961767920651  165.83906221655837-297.05198135127137Q 165.66349146398622-296.8068795135768  165.4653915270144-296.58158766957945L 165.4653915270144-296.58158766957945L 158.49887707683683-288.6588244890049Q 159.31484314414644-289.19305232148776  160.24267947467538-289.3093267544064Q 161.17711913643672-289.4331109154583  162.13059313311592-289.26052082983176Q 163.09157685792837-289.0813274129728  164.05385627068966-288.66130558999714Q 165.0236454115842-288.2346804357891  165.90849764335837-287.6963157564831Q 166.79995320636496-287.16546080531043  167.57462015391664-286.57750577270076Q 168.3567968296015-285.9829474088587  168.95006535212795-285.4612842414994L 168.95006535212795-285.4612842414994Q 170.8500265698392-283.7906414397033  171.87277602203096-282.31874349553686Q 172.88141241485712-280.84593915446953  173.02462020187488-279.3884098992786Q 173.16122465766023-277.9233709159544  172.4171224984442-276.3805125372786Q 171.6739267361291-274.8235410992372  170.0693172466569-272.99867716285837L 170.0693172466569-272.99867716285837ZM 174.82651206655925-260.8278677901076L 174.82651206655925-260.8278677901076Q 173.91883458331935-260.17172635229156  173.62063117495154-259.2528277032351Q 173.33053202982688-258.3397874598734  173.5426973231672-257.2098822035347Q 173.7408999475695-256.0822228047444  174.38864135918362-254.81063676216604Q 175.04224117649255-253.53094645634445  176.0323117389114-252.1613259682414L 176.0323117389114-252.1613259682414Q 177.23914331203733-250.49184774013946  178.41151185725627-249.36505938637413Q 179.57802199678048-248.24637529585203  180.64572252609938-247.53749196293182Q 181.70756464972354-246.8367128932548  182.60937560534305-246.47680040344017Q 183.51929082420583-246.12274631932036  184.23275363064175-245.97217798323138L 184.23275363064175-245.97217798323138L 188.0498616181952-248.7314870654756Q 186.9464353726413-250.82121205231542  185.7109991773032-253.02527589151077Q 184.4836672452083-255.23519813640087  182.98977379303784-257.3017852634203L 182.98977379303784-257.3017852634203Q 181.92940236228156-258.7686569104419  180.92731922551445-259.7964357713877Q 179.93109449444216-260.8161103690902  178.92969064201125-261.31379533403947Q 177.9341451952751-261.8033760357455  176.91633293374346-261.70925802325144Q 175.9124833411498-261.6128941532089  174.82651206655925-260.8278677901076ZM 190.21641050231466-259.6630819140199L 190.21641050231466-259.6630819140199Q 188.8982692209878-261.4865411437429  187.86367315090348-262.7129223943196Q 186.83493548651393-263.9311993816531  186.02120049893048-264.7496340888732Q 185.2052196537986-265.5541061271554  184.57807448149782-266.06321214053554Q 183.9567877148918-266.5642138906725  183.44095225079195-266.91933890243155L 183.44095225079195-266.91933890243155Q 183.27691689133792-267.14625827324153  183.3690929311678-267.4966916872894Q 183.45541056530294-267.85522936458057  183.72285125232895-268.0485567525085L 183.72285125232895-268.0485567525085Q 183.96597914962535-268.22430892335205  184.24347419448435-268.0794072322691L 184.24347419448435-268.0794072322691Q 184.43582653511743-267.98401028759594  185.01024605616516-267.5478426434047Q 185.58466557721283-267.1116749992135  186.5011184861066-266.21942275585394Q 187.41171298930553-265.3352747757375  188.64500732936517-263.919370446068Q 189.86433900048678-262.505711973947  191.34651564126767-260.45533337341396L 191.34651564126767-260.45533337341396Q 192.049524324642-259.48282178422835  192.61339384228373-258.4467468993506Q 193.17726335992552-257.4106720144729  193.46236702245474-256.33349240938725Q 193.75332909067873-255.24820854105837  193.71328717618456-254.10873645053417Q 193.66514099844719-252.9634059543152  193.1405057429168-251.7944500746283Q 192.6217288930812-250.61738993169814  191.55801631136057-249.39190409192304Q 190.49205787209152-248.15245558320996  188.7658498012871-246.90461517022052L 188.7658498012871-246.90461517022052L 183.2954721121181-242.95019132623995Q 183.06855274130814-242.78615596678594  182.8299165591086-242.63832913381833Q 182.5854219712143-242.498606564094  182.32423133318608-242.43318905415646Q 182.05718228946313-242.37587580746214  181.82430863261393-242.4419807236614Q 181.59729338145962-242.49998137661748  181.4039659935317-242.7674220636435L 181.4039659935317-242.7674220636435Q 181.08761208601322-243.20505227877703  181.36755287103497-243.6541994226858Q 181.6474936560567-244.1033465665946  182.2553133992977-244.54272699370355L 182.2553133992977-244.54272699370355L 183.56820404469826-245.4917887162589Q 182.8228117089369-245.53290155839233  181.86475843426228-245.76578333716702Q 180.91480942283093-246.0045235216365  179.81156681604023-246.62601829278236Q 178.71642847249274-247.253371469623  177.50939701675253-248.3427635316712Q 176.30236556101227-249.43215559371936  175.0252331195489-251.19888498073988L 175.0252331195489-251.19888498073988Q 173.83011835781255-252.85215468235538  173.02459163574224-254.47856997373418Q 172.22131077122037-256.11894793405094  171.97477833031743-257.56950705231617Q 171.73049174696303-259.03402883951946  172.12809629145346-260.25922703826143Q 172.52570083594387-261.48442523700334  173.72513179593946-262.3514692798317L 173.72513179593946-262.3514692798317Q 175.11096081052892-263.3532566536401  176.45665203027988-263.4376079493344Q 177.78838058109278-263.52420510257707  179.09969653135553-262.905052069324Q 180.39704981268028-262.28814489361935  181.61989815160388-261.0744555017271Q 182.84274649052747-259.8607661098348  183.99685241240033-258.2642262509218L 183.99685241240033-258.2642262509218Q 184.86389645522868-257.0647952909262  185.64179360238165-255.80092186828801Q 186.4336534184727-254.5348025881014  187.0565945167097-253.33166319961506Q 187.673677209252-252.13662807437197  188.09479501301485-251.05905682598328Q 188.5019501478397-249.98373143514306  188.62526430846333-249.14743386980538L 188.62526430846333-249.14743386980538Q 190.56218322359135-250.5475928308593  191.36822183508573-251.9076302409257Q 192.16840204088535-253.2757719142353  192.2097147656331-254.60125041605036Q 192.25102749038084-255.92672891786543  191.6613826120671-257.2032941991881Q 191.07759613944822-258.4717552172675  190.21641050231466-259.6630819140199ZM 208.2858993625405-229.54121809819446L 208.2858993625405-229.54121809819446Q 209.09640694503693-227.59309657767378  209.42155481293707-225.6921550046632Q 209.741311145586-223.7781393600743  209.31732686624864-222.06374811800765Q 208.8933425869113-220.34935687594106  207.58719444347793-218.9069709957392Q 206.28104630004458-217.46458511553737  203.83435339512522-216.44664905221248L 203.83435339512522-216.44664905221248Q 201.41535890045031-215.44023679337806  199.46994117567766-215.37818942324333Q 197.5245234509051-215.31614205310865  195.9795608027044-216.1138828729648Q 194.42920661925245-216.8985496212427  193.22620169295936-218.48841727212266Q 192.01935549850276-220.0875177264174  191.0667209939572-222.3772529732853L 191.0667209939572-222.3772529732853Q 190.33688004289408-224.1314856220954  189.93847288343932-225.68785053280726Q 189.5362244558211-227.25344824693394  189.3784733209146-228.5958396129058Q 189.21148938259327-229.93438971071407  189.23131491541938-231.05822552979453Q 189.24190764483063-232.17822008071147  189.32238393517258-233.07817761676125L 189.32238393517258-233.07817761676125L 181.42759628153934-229.84773989037808Q 181.15061217909565-229.7325018454734  180.8697868084884-229.62649660398347Q 180.59819424129603-229.52433263065706  180.35126834928445-229.51907869362987Q 180.0912683856946-229.519216291854  179.8967075791082-229.6223961956166Q 179.6983055043583-229.73480890279393  179.56386111863614-230.0579570223116L 179.56386111863614-230.0579570223116Q 179.42941673291398-230.38110514182924  179.49876595719306-230.60491462574782Q 179.58118925305035-230.82333257441508  179.7643638533704-231.00785104448673Q 179.96061252526874-231.1869779793071  180.24298816296374-231.3152900957901Q 180.53459660407353-231.44744348043656  180.85774472359117-231.58188786615875L 180.85774472359117-231.58188786615875L 202.01933015028973-240.38607449687817Q 202.711790406399-240.67416960913994  203.0040019832725-240.49247647679562Q 203.29621356014604-240.3107833444513  203.4229754095412-240.00610083176323L 203.4229754095412-240.00610083176323Q 203.57662613608082-239.63678869517162  203.4803192355453-239.34760885336163Q 203.38401233500977-239.05842901155168  202.69155207890051-238.77033389928994L 202.69155207890051-238.77033389928994L 199.8386158237304-237.58338203677147Q 200.86406013853585-237.69591628592804  201.79926102293285-237.34849822965717Q 202.74369471074468-237.0049214415497  203.5825886946061-236.3683235434688Q 204.42148267846758-235.7317256453879  205.1464136880639-234.87441879756403Q 205.8713446976602-234.01711194974018  206.45623338894683-233.07987920447084Q 207.05035488364823-232.14648772736507  207.51063512839133-231.22239785278617Q 207.97091537313432-230.29830797820722  208.2858993625405-229.54121809819446ZM 207.01177249129947-229.0111230916328L 207.01177249129947-229.0111230916328Q 206.45168807341778-230.3052658367912  205.62938148998262-231.76108584037655Q 204.80323363838397-233.22613864737667  203.7392550999644-234.42977882192324Q 202.68450936495958-235.63726026463328  201.38566307567058-236.36410159312265Q 200.09220832163282-237.10401699319024  198.5644201533773-236.92328704841486L 198.5644201533773-236.92328704841486L 190.25489708006637-233.46614570127375Q 190.30125143823167-232.39150563433083  190.3867592120197-231.17069097983907Q 190.47226698580778-229.9498763253473  190.69848901278127-228.62514103310514Q 190.91547823634-227.29656447269946  191.3177954630703-225.8609667403677Q 191.71087988638584-224.4215277398725  192.3408478651982-222.90734797984692L 192.3408478651982-222.90734797984692Q 193.2051332019835-220.8299672115192  194.2536778686371-219.53325826883685Q 195.3060638034541-218.2273165227397  196.6196032305213-217.64739051578707Q 197.94621672916676-217.06207297358316  199.54321652347716-217.20661243868722Q 201.1494491212023-217.3549931719548  203.11603624855258-218.17318329077818L 203.11603624855258-218.17318329077818Q 205.1472529998064-219.01826228674605  206.27480854507107-220.2130503400605Q 207.4023640903357-221.40783839337496  207.7915705588654-222.8153249207899Q 208.17154422398033-224.21897018004137  207.9231529202379-225.8052557029612Q 207.68783568807373-227.3861496906298  207.01177249129947-229.0111230916328ZM 217.80566392584544-195.43656277096437L 217.80566392584544-195.43656277096437Q 218.17013898008327-193.35828032268208  218.07134829250307-191.4322636041546Q 217.96443529499848-189.49466983585208  217.17550544017442-187.9146414550414Q 216.38657558535039-186.33461307423067  214.79640363560657-185.2130725398549Q 213.20623168586275-184.09153200547908  210.59606652569775-183.63377897527516L 210.59606652569775-183.63377897527516Q 208.0154504050818-183.18120805484713  206.10362014759463-183.5464546380708Q 204.19178989010746-183.91170122129446  202.8588855468788-185.02824320966846Q 201.51785889372573-186.13320814826747  200.6919925056593-187.94782786299066Q 199.8643987476676-189.77229725756354  199.43601100619372-192.21501786028398L 199.43601100619372-192.21501786028398Q 199.10781072038714-194.08645703172303  199.0597015388074-195.6922856361039Q 199.00986498730236-197.3079639203344  199.1497450514518-198.6523349880287Q 199.27977543575156-199.99497868579775  199.54509192668144-201.0872273569531Q 199.80055873776163-202.17774865818313  200.07605569742435-203.03827258302002L 200.07605569742435-203.03827258302002L 191.66564193602147-201.61407443598938Q 191.37015154053108-201.56225333823042  191.07293377511542-201.5202819203212Q 190.78556568954943-201.48003787233722  190.54347672367913-201.5289554827025Q 190.28981070803385-201.58599540299213  190.1225499014083-201.72925678148252Q 189.9535617248574-201.88236783982256  189.89310377747196-202.22710663456135L 189.89310377747196-202.22710663456135Q 189.83264583008656-202.57184542930014  189.9492983691764-202.7750502154738Q 190.0775279580412-202.9701326917231  190.29664657518055-203.11008636842703Q 190.52734224209482-203.2419177352066  190.83095494750958-203.3053158827405Q 191.144417332774-203.37044140019975  191.48915612751276-203.43089934758518L 191.48915612751276-203.43089934758518L 214.06462234297754-207.39003121636773Q 214.8033483317035-207.51958396076506  215.0487082866054-207.27834032348Q 215.29406824150732-207.03709668619496  215.35107144904214-206.7120572511555L 215.35107144904214-206.7120572511555Q 215.42016624605404-206.3180700571683  215.26290215734232-206.05698002211977Q 215.1056380686306-205.7958899870712  214.36691207990467-205.66633724267388L 214.36691207990467-205.66633724267388L 211.3233610063538-205.13257993575687Q 212.34857303930565-205.0179488427206  213.1850608232525-204.47426861748917Q 214.03139828704903-203.93231576218304  214.71062198228407-203.127545501903Q 215.38984567751916-202.322775241623  215.90956337441514-201.32759007516742Q 216.4292810713111-200.33240490871188  216.79485863046278-199.2898824637522Q 217.17028586946415-198.2490873887178  217.4171527307176-197.24666195367794Q 217.66401959197103-196.24423651863805  217.80566392584544-195.43656277096437ZM 216.4464081065897-195.1981857212733L 216.4464081065897-195.1981857212733Q 216.18314958742337-196.58353584022743  215.69941258283032-198.18403529676823Q 215.21394820831205-199.79438443315874  214.43920462748343-201.20171253419448Q 213.67431072650453-202.61076800515553  212.5660378990742-203.6042625144406Q 211.46588738156825-204.60933407350063  209.93558522695324-204.76736987824313L 209.93558522695324-204.76736987824313L 201.07087336224194-203.2127369454751Q 200.88089957025886-202.15400659342143  200.69713696745595-200.94407630377202Q 200.51337436465298-199.73414601412264  200.44416942937664-198.39201685605573Q 200.3651148142506-197.04816032806352  200.44347132590045-195.55931505165566Q 200.51197815770058-194.0687424053225  200.79526682544943-192.4533949099751L 200.79526682544943-192.4533949099751Q 201.18392505864145-190.23721694379725  201.92323919962405-188.74245455433757Q 202.6642807105319-187.2378424850282  203.8190454878811-186.38448540326607Q 204.9853873150053-185.52300601157953  206.57530208842053-185.31450897736548Q 208.1750665416854-185.10773931307676  210.27304834966705-185.4756691071652L 210.27304834966705-185.4756691071652Q 212.43997791659646-185.8556904907307  213.8016961090534-186.77472452945386Q 215.16341430151036-187.69375856817706  215.8512379465722-188.98193504416696Q 216.52921191178447-190.26838415023155  216.6340300377258-191.87057426394284Q 216.75042521344213-193.46464206772976  216.4464081065897-195.1981857212733ZM 195.31976659092484-163.41064202658953L 195.31976659092484-163.41064202658953Q 195.29469764777463-161.0007724143305  195.8078176505107-159.37534697377896Q 196.32093765324677-157.74992153322745  197.52078219929558-156.76738753111002Q 198.7106272863724-155.7849575495036  200.71625369879936-155.35407160894007Q 202.7118806522543-154.9232896888875  205.66172104900284-154.89260363814347L 205.66172104900284-154.89260363814347Q 204.70447752097402-155.16257554047195  204.03054750051385-155.7496175555974Q 203.35672150056467-156.34665902969488  202.90517204924205-157.1614001499351Q 202.44351911843643-157.96624583171425  202.1734162157643-158.9191070083649Q 201.89331385412015-159.87207220552662  201.75362000012836-160.8635789514224Q 201.61382212562566-161.84508623834623  201.57370677931019-162.79555494324396Q 201.54359089196677-163.74591962763068  201.5519125328465-164.54587634539303L 201.5519125328465-164.54587634539303Q 201.57822972212867-167.07573946531636  202.0462009242724-168.80096494448253Q 202.5242756058992-170.53608586210973  203.625450849038-171.60468919539025Q 204.7265220716658-172.66329306969868  206.5114187532148-173.12475144939867Q 208.2963154347638-173.58620982909866  210.9461720623515-173.55864439368452L 210.9461720623515-173.55864439368452L 218.14578252221244-173.48374962576688Q 218.44576629137327-173.48062901043699  218.75554147848422-173.45740545665203Q 219.0553172066231-173.43428592337804  219.28426455786976-173.33189886190485Q 219.5233153885995-173.23940723889265  219.671434903982-173.05785666973117Q 219.8196584398755-172.88630555954174  219.8162257630126-172.55632341346475L 219.8162257630126-172.55632341346475Q 219.81258504512772-172.20634234944376  219.66061677083835-172.01791293664016Q 219.50864849654897-171.82948352383656  219.26772529662128-171.74198488535222Q 219.03680155566568-171.65438222635686  218.7365057249718-171.6275044647707Q 218.42631445581688-171.61073018266757  218.12633068665605-171.61385079799746L 218.12633068665605-171.61385079799746L 210.9267202267951-171.6887455659151Q 208.62684466322844-171.71267028344437  207.10391030466113-171.43849709092697Q 205.58087192558278-171.15432443943763  204.6527040797874-170.37393706765903Q 203.734431672453-169.58344621639742  203.3396813189544-168.16747582178718Q 202.95493042442777-166.7514014066659  202.9318378709865-164.53152151487546L 202.9318378709865-164.53152151487546Q 202.91789912251295-163.19159401262357  203.09207772531-161.66969985916626Q 203.25615284862403-160.13791026724786  203.74187498721892-158.76278336253006Q 204.21759766684178-157.38776047832323  205.07673246426467-156.3387669607755Q 205.92586780271552-155.28987746373875  207.31163177938765-154.875440253829L 207.31163177938765-154.875440253829L 217.95105612562656-154.76476243012848Q 218.2510398947874-154.7616418147986  218.56060704087633-154.7184193430696Q 218.86027874850424-154.68530035082358  219.0892260997509-154.58291328935042Q 219.32827693048065-154.49042166633822  219.47639644586314-154.30887109717673Q 219.62461998175664-154.13731998698728  219.62170740744872-153.85733513577048L 219.62170740744872-153.85733513577048Q 219.61806668956385-153.50735407174946  219.46609841527447-153.31892465894586Q 219.3141301409851-153.1304952461423  219.0731029205464-153.03299714868592Q 218.84197113856882-152.9253955717465  218.54177932838593-152.90851726913235Q 218.23148403872003-152.88174352805714  217.9315002695592-152.88486414338703L 217.9315002695592-152.88486414338703L 206.42212299275374-153.00459175154427Q 202.81231830385127-153.04214315601408  200.39848242225804-153.647284740053Q 197.99454197912587-154.24232284460888  196.54751951257325-155.497442751746Q 195.09060160755953-156.76266613836614  194.50081458939914-158.70890643011057Q 193.91113159174972-160.665146180827  193.93984125278482-163.42499685710706L 193.93984125278482-163.42499685710706Q 193.96033329345116-165.39489027459678  194.18436470084833-166.74263280508976Q 194.40839610824554-168.09037533558273  194.73794868236212-169.00699690465754Q 195.06760527698975-169.93361793270432  195.4639294280697-170.53952813006921Q 195.8702530381217-171.1453343069231  196.22481100462653-171.5816697838075L 196.22481100462653-171.5816697838075Q 196.41677711480403-171.76968311456716  196.67676304807677-171.76697858128125L 196.67676304807677-171.76697858128125Q 197.00674519415375-171.76354590441835  197.22486092234044-171.5812671916799Q 197.44308067103813-171.40898793791345  197.43912789162025-171.02900849697636L 197.43912789162025-171.02900849697636Q 197.4372555224223-170.84901823547983  197.29497464557198-170.63048642524913L 197.29497464557198-170.63048642524913Q 196.96041559701118-170.19394290734274  196.6241922202744-169.5974080458839Q 196.2779693845656-169.00097720493608  195.99914224888613-168.1538317461105Q 195.7202110926956-167.29668682831291  195.52815445192343-166.1386219567555Q 195.33609781115132-164.98055708519806  195.31976659092484-163.41064202658953Z"></path><g transform="matrix(-0.00913975015282631, 1.5446425676345825, 1.5446425676345825, 0.00913975015282631, 336.5071716308594, 151.4815216064453)"><g><path fill="rgba(255, 136, 102, 1)" d="M28.283,26.114c-1.063-0.59,0.233,3.208,0.522,3.9c0.288,0.69,0.616,1.36,0.959,2.022   c-0.198-0.599-0.386-1.201-0.552-1.813C29.067,29.686,28.665,26.327,28.283,26.114z" transform="matrix(1, 0, 0, 1, 0, 0)"></path><path fill="rgba(255, 136, 102, 1)" d="M34.747,27.711c-0.369-1.886-1.981-0.449-2.545,0.502c-0.35,0.59-0.641,1.241-0.847,1.894   c-0.249,0.787-0.392,1.581-0.431,2.38c0.169,0.466,0.348,0.928,0.548,1.383C32.935,32.035,35.151,29.775,34.747,27.711z" transform="matrix(1, 0, 0, 1, 0, 0)"></path><path fill="rgba(255, 136, 102, 1)" d="M12.82,36.091c-0.083-0.061-0.166-0.12-0.249-0.181c-0.061-0.045-0.089-0.103-0.105-0.164   c-1.053-1.01-2.187-1.905-3.667-2.323c-3.185-0.898-1.211,2.083,0.323,2.667c0.776,0.295,1.788,0.255,2.617,0.415   c0.622,0.12,1.259,0.255,1.897,0.412C13.365,36.64,13.094,36.364,12.82,36.091z" transform="matrix(1, 0, 0, 1, 0, 0)"></path><path fill="rgba(255, 136, 102, 1)" d="M24.033,31.807c-1.548,1.564,4.061,2.34,4.81,2.567c0.193,0.058,0.381,0.123,0.564,0.193   C27.55,33.129,24.694,31.139,24.033,31.807z" transform="matrix(1, 0, 0, 1, 0, 0)"></path><path fill="rgba(255, 136, 102, 1)" d="M54.95,29.113c-0.613-0.115-0.751,0.116-0.414,0.693c-0.024,0.527,0.281,1.269,0.419,1.785   c0.33,1.231,0.724,2.454,1.347,3.571c0.304,0.546,0.705,1.012,1.127,1.46c-0.387-2.138,0.054-4.641-1.161-6.569   C56.059,29.196,55.62,28.883,54.95,29.113z" transform="matrix(1, 0, 0, 1, 0, 0)"></path><path fill="rgba(255, 136, 102, 1)" d="M8.004,42.286c1.29-0.338,2.736-1.331,3.742-1.972c0.972-0.619,1.816-1.347,2.621-2.142   c-0.027-0.008-0.055-0.016-0.082-0.024C11.677,38.659,9.183,39.811,8.004,42.286z" transform="matrix(1, 0, 0, 1, 0, 0)"></path><path fill="rgba(255, 136, 102, 1)" d="M51.848,42.537c0.816,0.906,3.1,0.331,4.056-0.055c0.879-0.355,1.615-0.906,2.339-1.483   c-0.869,0.106-1.756,0.13-2.619,0.205C54.955,41.262,50.947,41.536,51.848,42.537z" transform="matrix(1, 0, 0, 1, 0, 0)"></path><path fill="rgba(255, 136, 102, 1)" d="M52.574,38.026c1.01,0.042,2.087,0.167,3.152,0.392c-0.07-0.041-0.139-0.084-0.21-0.124   c-0.024-0.013-0.047-0.027-0.071-0.04c-0.184-0.102-0.37-0.201-0.56-0.293c-0.899-0.435-1.829-0.795-2.794-1.052   c-1.213-0.324-1.852-0.767-2.496,0.441c-0.872,0.959-0.472,1.514,1.199,1.664c0.663,0.172,1.339,0.261,2.027,0.265   c0.941,0.033,1.882-0.073,2.824-0.053c-1.012-0.348-2.062-0.615-3.099-0.853C52.355,38.329,52.371,38.017,52.574,38.026z" transform="matrix(1, 0, 0, 1, 0, 0)"></path><path fill="rgba(255, 136, 102, 1)" d="M34.404,64.298c-0.587,1.845,4.329,1.017,5.107,0.833c1.619-0.383,3.134-0.992,4.507-1.875   c-1.346,0.013-2.692,0.043-4.038,0.101C38.96,63.401,34.739,63.244,34.404,64.298z" transform="matrix(1, 0, 0, 1, 0, 0)"></path><path fill="rgba(255, 136, 102, 1)" d="M44.882,66.107c-0.056,0.093-0.115,0.186-0.172,0.28c-0.195,0.978-0.305,2.175,0.783,2.486   c1.532,0.437,1.298-1.984,1.011-2.834c-0.185-0.549-0.453-1.067-0.739-1.572C45.484,65.034,45.193,65.585,44.882,66.107z" transform="matrix(1, 0, 0, 1, 0, 0)"></path><path fill="rgba(255, 136, 102, 1)" d="M14.526,32.145c-0.029-0.555-0.3-0.679-0.812-0.373c-0.701-0.084-0.895,0.232-0.58,0.947   c0.06,0.236,0.132,0.468,0.216,0.696c0.142,0.417,0.306,0.831,0.473,1.239c0.22,0.539,0.453,1.073,0.693,1.604   c0.017,0.021,0.035,0.042,0.052,0.064c0.112-0.69,0.213-1.371,0.202-2.087c-0.006-0.384-0.028-0.765-0.076-1.146   C14.654,32.771,14.598,32.457,14.526,32.145z" transform="matrix(1, 0, 0, 1, 0, 0)"></path><path fill="rgba(255, 136, 102, 1)" d="M16.938,53.133c-0.788-0.281-1.56-0.603-2.35-0.88c-0.255-0.089-0.821-0.382-1.113-0.351   c-0.443,0.047-1.098,0.835-0.839,1.167c0.381,0.488,1.743,0.698,2.356,0.818c0.821,0.16,1.665,0.21,2.5,0.167   c0.61-0.031,1.202-0.133,1.786-0.268C18.482,53.656,17.705,53.406,16.938,53.133z" transform="matrix(1, 0, 0, 1, 0, 0)"></path><path fill="rgba(255, 136, 102, 1)" d="M33.082,72.678c-0.951,3.462,3.023,0.636,3.81,0.078c1.936-1.372,3.647-3.115,5.086-4.996   c0.372-0.486,0.724-1.033,1.067-1.622c-2.179,1.635-4.692,2.877-6.982,4.326C35.447,70.854,33.286,71.935,33.082,72.678z" transform="matrix(1, 0, 0, 1, 0, 0)"></path><path fill="rgba(255, 136, 102, 1)" d="M10.303,60.793c1.092-0.303,2.081-0.885,3.011-1.516c0.945-0.642,1.837-1.361,2.709-2.105   c-1.894,0.759-3.852,1.407-5.591,2.336C9.536,59.986,7.607,61.54,10.303,60.793z" transform="matrix(1, 0, 0, 1, 0, 0)"></path><path fill="rgba(255, 136, 102, 1)" d="M19.069,58.238c-0.24,0.791-0.452,1.589-0.638,2.395c-0.096,0.402-0.182,0.806-0.258,1.212   c-0.399,0.698-0.3,0.964,0.297,0.797c1.523,0.527,1.404-4.114,1.48-5.054c0.074-0.924,0.252-1.791,0.546-2.635   c-0.072,0.06-0.143,0.122-0.215,0.183C19.768,56.103,19.399,57.148,19.069,58.238z" transform="matrix(1, 0, 0, 1, 0, 0)"></path></g><path d="M93.601,36.829c-3.434,2.929-7.078,5.417-10.909,7.451c-2.654,0.206-5.224,0.706-7.951,0.533   c-3.678-0.234-7.323-1.158-10.66-2.727c-1.394-0.655-2.74-1.457-4.08-2.271c0.003-0.036-0.002-0.073-0.024-0.108   c-1.184-1.822-1.779-3.144-1.67-5.395c0.067-1.366,0.041-2.516-0.485-3.799c-0.479-1.168-2.096-3.971-3.736-2.994   c-1.538,0.916-0.214,3.551,0.179,4.699c0.428,1.252,0.937,2.52,1.661,3.636c0.509,0.784,1.13,1.466,1.74,2.16   c-1.458-0.949-3.15-1.666-4.646-2.119c-0.993-0.301-3.109-0.904-4.393-0.392c-0.013,0.005-0.026,0.009-0.037,0.016   c-0.359,0.152-0.654,0.389-0.831,0.756c-0.684,1.419,1.006,2.73,2.126,3.213c2.162,0.932,4.524,0.363,6.808,0.473   c-2.979,0.286-7.179,1.081-5.808,2.958c0.851,1.166,3.222,0.984,4.406,0.649c1.548-0.438,2.998-1.441,4.034-2.693   c0.103,0.044,0.203,0.094,0.307,0.135c0.058,0.023,0.118,0.033,0.177,0.032c2.224,1.5,4.459,2.972,6.892,3.824   c3.135,1.099,7.109,1.909,10.885,1.8c-6.821,2.796-14.159,4.24-21.899,4.25c-2.535-1.002-5.147-1.797-7.614-3.011   c-3.326-1.636-6.524-3.62-9.449-5.895c-2.584-2.01-5.099-4.228-6.659-7.126c1.38-1.551,2.871-3.48,3.562-5.344   c0.476-1.283,0.658-3.546-0.955-4.153c-1.809-0.681-3.167,2.094-3.671,3.39c-0.27,0.696-0.434,1.403-0.512,2.114   c-0.351-1.131-0.67-2.272-1.027-3.402c-0.143-1.174-0.05-2.648-0.939-3.462c-0.098-0.09-0.275-0.149-0.404-0.091   c-2.774,1.246-0.342,6.343,1.517,9.553c-1.599-1.204-3.379-2.209-5.272-2.749c-1.258-0.358-3.326-0.48-2.812,1.542   c0.448,1.766,3.351,2.279,4.788,2.601c2.02,0.453,3.872,0.846,5.501,2.225c0.334,0.283,0.653,0.584,0.965,0.894   c1.34,1.735,3.001,3.231,4.682,4.63c3.545,2.952,7.915,5.966,12.502,7.945c-5.751-0.709-11.116-2.468-16.577-4.9   c-6.144-2.735-12.472-5.367-18.194-8.948c0.6-1.354,0.742-3.034,0.475-4.443c-0.193-1.02-0.811-2.294-2.06-2.076   c-1.895,0.332-1.613,2.266-0.825,4.163c-1.3-1.114-2.825-1.953-4.503-2.207c-1.449-0.219-3.167-0.125-3.205,1.678   c-0.044,2.13,2.205,2.951,3.9,3.271c1.346,0.254,2.692,0.414,4.028,0.695c-2.661,0.613-5.01,2.067-6.027,4.839   c-0.113,0.308,0.051,0.652,0.414,0.645c1.561-0.031,3.04-1.129,4.333-1.914c1.356-0.824,2.558-1.769,3.643-2.906   c0.925,0.33,1.811,0.717,2.698,1.121c4.87,3.045,10.006,5.609,15.265,7.989c-4.405,0.017-8.733,2.618-12.284,5.387   c-0.058-0.046-0.127-0.083-0.22-0.094c-2.559-0.313-4.772-1.516-7.265-1.989c-1.177-0.223-3.08,0.341-2.552,1.93   c0.52,1.566,3.508,2.035,4.865,2.15c0.985,0.083,1.965,0.008,2.909-0.208c-2.15,1.046-4.332,1.964-6.555,2.93   c-1.926,0.837-4.091,1.679-5.157,3.581c-0.178,0.318,0.039,0.719,0.377,0.797c4.421,1.014,8.156-2.693,11.277-5.51   c-0.251,0.598-0.469,1.222-0.666,1.866c-0.339,1.109-1.953,4.881-0.751,5.814c1.037,0.805,2.663-1.082,3.042-1.794   c0.484-0.911,0.592-1.914,0.646-2.929c0.101-1.882,0.294-3.597,0.661-5.44c4.297-3.401,8.99-5.933,14.559-5.238   c5.209,2.119,10.545,3.398,16.125,3.764c-3.411,1.593-5.388,5.737-7.218,9.592c-2.871-0.006-13.399,0.113-11.727,3.14   c0.867,1.57,4.208,1.197,5.582,0.938c0.958-0.181,1.973-0.448,2.938-0.835c-1.107,0.824-2.268,1.582-3.493,2.31   c-2.058,1.224-4.462,2.372-6.134,4.135c-0.766,0.808-1.911,2.442-1.068,3.589c0.807,1.099,2.447,0.475,3.451,0.1   c3.763-1.405,6.869-4.413,9.167-7.726c0.103,1.047,0.932,2.148,2.083,2.033c1.206-0.121,1.77-1.414,1.792-2.489   c0.029-1.432-0.661-2.762-1.369-3.972c2.152-4.643,3.952-9.969,9.685-10.691c0.017-0.002,0.028-0.01,0.043-0.013   C69.737,52.626,85.093,48.116,94.77,37.9C95.491,37.14,94.355,36.186,93.601,36.829z M56.303,35.162   c-0.623-1.117-1.018-2.34-1.347-3.571c-0.138-0.516-0.443-1.258-0.419-1.785c-0.338-0.577-0.2-0.808,0.414-0.693   c0.67-0.23,1.109,0.083,1.319,0.94c1.216,1.929,0.774,4.431,1.161,6.569C57.008,36.175,56.607,35.708,56.303,35.162z    M52.544,38.372c1.037,0.238,2.087,0.505,3.099,0.853c-0.941-0.02-1.883,0.086-2.824,0.053c-0.688-0.005-1.364-0.093-2.027-0.265   c-1.671-0.15-2.07-0.705-1.199-1.664c0.645-1.208,1.283-0.765,2.496-0.441c0.966,0.258,1.896,0.617,2.794,1.052   c0.19,0.092,0.376,0.191,0.56,0.293c0.024,0.013,0.047,0.027,0.071,0.04c0.071,0.04,0.14,0.083,0.21,0.124   c-1.064-0.224-2.141-0.349-3.152-0.392C52.371,38.017,52.355,38.329,52.544,38.372z M55.904,42.482   c-0.956,0.386-3.24,0.961-4.056,0.055c-0.901-1.001,3.107-1.275,3.776-1.333c0.863-0.075,1.75-0.099,2.619-0.205   C57.519,41.576,56.783,42.127,55.904,42.482z M28.843,34.373c-0.749-0.227-6.358-1.003-4.81-2.567   c0.661-0.668,3.516,1.322,5.374,2.759C29.224,34.496,29.036,34.432,28.843,34.373z M28.804,30.014   c-0.289-0.692-1.585-4.49-0.522-3.9c0.382,0.212,0.784,3.571,0.929,4.109c0.165,0.612,0.354,1.214,0.552,1.813   C29.42,31.374,29.093,30.704,28.804,30.014z M31.471,33.87c-0.2-0.455-0.379-0.917-0.548-1.383c0.039-0.799,0.183-1.593,0.431-2.38   c0.206-0.653,0.497-1.303,0.847-1.894c0.565-0.951,2.176-2.388,2.545-0.502C35.151,29.775,32.935,32.035,31.471,33.87z    M11.74,36.505c-0.829-0.16-1.842-0.12-2.617-0.415c-1.534-0.583-3.508-3.565-0.323-2.667c1.481,0.418,2.615,1.313,3.667,2.323   c0.015,0.061,0.044,0.119,0.105,0.164c0.082,0.061,0.166,0.12,0.249,0.181c0.274,0.272,0.545,0.549,0.817,0.825   C12.999,36.76,12.362,36.625,11.74,36.505z M11.746,40.314c-1.006,0.641-2.452,1.634-3.742,1.972   c1.179-2.474,3.672-3.627,6.28-4.137c0.027,0.008,0.055,0.016,0.082,0.024C13.562,38.967,12.718,39.695,11.746,40.314z    M14.567,36.322c-0.017-0.021-0.035-0.042-0.052-0.064c-0.24-0.531-0.473-1.065-0.693-1.604c-0.166-0.408-0.33-0.821-0.473-1.239   c-0.084-0.228-0.156-0.46-0.216-0.696c-0.315-0.715-0.122-1.031,0.58-0.947c0.512-0.307,0.783-0.183,0.812,0.373   c0.072,0.312,0.128,0.626,0.168,0.944c0.048,0.38,0.07,0.762,0.076,1.146C14.78,34.95,14.679,35.632,14.567,36.322z M13.314,59.276   c-0.93,0.632-1.92,1.214-3.011,1.516c-2.695,0.747-0.767-0.807,0.129-1.286c1.739-0.928,3.697-1.577,5.591-2.336   C15.151,57.915,14.26,58.634,13.314,59.276z M17.492,54.054c-0.835,0.043-1.679-0.007-2.5-0.167   c-0.613-0.12-1.975-0.329-2.356-0.818c-0.259-0.332,0.396-1.12,0.839-1.167c0.292-0.031,0.858,0.261,1.113,0.351   c0.789,0.277,1.562,0.599,2.35,0.88c0.766,0.273,1.544,0.523,2.34,0.653C18.695,53.922,18.102,54.023,17.492,54.054z M19.95,57.589   c-0.076,0.939,0.043,5.581-1.48,5.054c-0.597,0.166-0.696-0.099-0.297-0.797c0.076-0.406,0.163-0.81,0.258-1.212   c0.185-0.806,0.398-1.604,0.638-2.395c0.33-1.09,0.699-2.135,1.212-3.101c0.072-0.06,0.143-0.122,0.215-0.183   C20.202,55.798,20.024,56.666,19.95,57.589z M41.978,67.76c-1.439,1.881-3.149,3.624-5.086,4.996   c-0.787,0.557-4.76,3.384-3.81-0.078c0.204-0.743,2.365-1.824,2.981-2.214c2.29-1.449,4.802-2.691,6.982-4.326   C42.702,66.728,42.349,67.275,41.978,67.76z M39.511,65.131c-0.778,0.184-5.693,1.012-5.107-0.833   c0.335-1.054,4.556-0.897,5.575-0.941c1.346-0.058,2.692-0.088,4.038-0.101C42.645,64.14,41.13,64.749,39.511,65.131z    M46.504,66.039c0.287,0.85,0.521,3.272-1.011,2.834c-1.088-0.311-0.978-1.508-0.783-2.486c0.057-0.093,0.116-0.186,0.172-0.28   c0.311-0.522,0.602-1.073,0.883-1.641C46.052,64.972,46.319,65.489,46.504,66.039z" transform="matrix(1, 0, 0, 1, 0, 0)" fill="rgba(51, 85, 68, 1)"></path></g><path text="ods" fill="rgba(51, 85, 68, 1)" space="preserve" text-anchor="start" offset="0" font-scale="contain" font-size="48" font-family="Great Vibes" transform="matrix(3.0591893196105957, 0, 0, 3.0591893196105957, 116.45270538330078, 427.990966796875)" font-weight="400" font-style="normal" data-fl-textpath="" d="M 11.47-16.8L 11.47-16.8Q 14.98-16.8  14.98-12.38L 14.98-12.38Q 14.98-10.37  13.92-8.06L 13.92-8.06Q 12.58-4.94  9.89-2.4L 9.89-2.4Q 10.51-1.2  12.14-1.2L 12.14-1.2Q 13.44-1.2  14.59-2.5L 14.59-2.5Q 16.03-3.98  16.66-5.11Q 17.28-6.24  17.57-6.77Q 17.86-7.3  18.31-8.28Q 18.77-9.26  18.86-9.48Q 18.96-9.7  19.2-9.7L 19.2-9.7Q 19.68-9.74  19.68-9.36L 19.68-9.36Q 19.68-9.22  19.58-9.02L 19.58-9.02L 19.3-8.35Q 19.01-7.68  18.86-7.39Q 18.72-7.1  18.36-6.36Q 18-5.62  17.74-5.18Q 17.47-4.75  17.02-4.03Q 16.56-3.31  16.2-2.88Q 15.84-2.45  15.31-1.92Q 14.78-1.39  14.3-1.1L 14.3-1.1Q 13.1-0.38  12.05-0.38L 12.05-0.38Q 10.08-0.38  8.98-1.63L 8.98-1.63Q 6.77 0  4.9 0L 4.9 0Q 1.39 0  1.39-4.42L 1.39-4.42Q 1.39-6.43  2.45-8.74L 2.45-8.74Q 3.89-12.1  6.5-14.45Q 9.12-16.8  11.47-16.8ZM 12-15.31L 12-15.31Q 10.7-15.31  8.93-13.58Q 7.15-11.86  5.76-8.88L 5.76-8.88Q 4.08-5.42  4.08-3.22Q 4.08-1.01  5.76-1.01L 5.76-1.01Q 6.96-1.01  8.45-2.3L 8.45-2.3Q 7.68-3.41  7.68-4.66L 7.68-4.66Q 7.78-6.72  9.36-6.72L 9.36-6.72Q 9.98-6.72  10.39-6.29Q 10.8-5.86  10.8-5.5Q 10.8-5.14  10.7-4.75L 10.7-4.75Q 11.52-5.95  12.58-8.16L 12.58-8.16Q 13.78-10.61  13.78-12.96Q 13.78-15.31  12-15.31ZM 28.94-2.78L 28.94-2.78Q 28.94-1.25  30.19-1.25L 30.19-1.25Q 32.45-1.25  36.19-8.78L 36.19-8.78Q 36.34-9.07  36.46-9.36Q 36.58-9.65  36.84-9.74Q 37.1-9.84  37.2-9.62Q 37.3-9.41  37.1-8.93L 37.1-8.93Q 33.260000000000005 0  29.330000000000002 0L 29.330000000000002 0Q 28.03 0  27.26-1.15Q 26.5-2.3  26.5-3.43Q 26.5-4.56  26.740000000000002-5.52L 26.740000000000002-5.52Q 23.950000000000003-0.91  21.94-0.29L 21.94-0.29Q 21.360000000000003-0.05  20.810000000000002-0.05Q 20.26-0.05  19.73-0.19L 19.73-0.19Q 17.380000000000003-0.82  17.380000000000003-3.94L 17.380000000000003-3.94Q 17.380000000000003-6.05  18.46-8.62Q 19.540000000000003-11.18  21.5-13.54Q 23.470000000000002-15.89  26.26-16.7L 26.26-16.7Q 27.26-17.04  28.630000000000003-17.04Q 30-17.04  31.68-16.18L 31.68-16.18Q 34.94-22.32  37.25-27.55L 37.25-27.55Q 37.92-29.14  38.57-29.59Q 39.22-30.05  39.77-30.05Q 40.32-30.05  40.44-30.05Q 40.56-30.05  41.35-29.93Q 42.14-29.81  42.58-29.86L 42.58-29.86Q 41.47-28.85  36.72-20.06L 36.72-20.06Q 30.67-8.83  29.42-5.09L 29.42-5.09Q 28.94-3.7  28.94-2.78ZM 31.300000000000004-15.41L 31.300000000000004-15.41Q 30.67-16.03  29.540000000000003-16.03Q 28.42-16.03  26.400000000000002-14.35L 26.400000000000002-14.35Q 23.18-11.66  21.07-7.73L 21.07-7.73Q 19.680000000000003-5.14  19.680000000000003-3.46L 19.680000000000003-3.46Q 19.680000000000003-2.69  19.990000000000002-2.06Q 20.3-1.44  20.980000000000004-1.44L 20.980000000000004-1.44Q 22.610000000000003-1.44  25.01-4.8Q 27.410000000000004-8.16  31.300000000000004-15.41ZM 40.516-0.91L 40.516-0.91Q 41.135999999999996-0.82  41.376-0.82L 41.376-0.82Q 43.296-0.82  45.166-3.07L 45.166-3.07Q 46.176-4.32  48.766-9.36L 48.766-9.36Q 48.866-9.6  49.105999999999995-9.6L 49.105999999999995-9.6Q 49.536-9.65  49.536-9.26L 49.536-9.26Q 49.536-9.17  49.315999999999995-8.71Q 49.105999999999995-8.26  48.916-7.8Q 48.715999999999994-7.34  48.286-6.48Q 47.855999999999995-5.62  47.546-5.09Q 47.236-4.56  46.756-3.79Q 46.275999999999996-3.02  45.796-2.59L 45.796-2.59L 44.786-1.54Q 43.965999999999994-0.72  42.866-0.38L 42.866-0.38Q 41.086 0.19  39.406-0.29L 39.406-0.29Q 38.306 0.19  37.436 0.19L 37.436 0.19Q 34.036 0.19 33.315999999999995-2.5L 33.315999999999995-2.5Q 33.166-3.12 33.166-4.01Q 33.166-4.9  33.766-5.71Q 34.366-6.53  35.036-6.58L 35.036-6.58Q 37.486-11.23  39.215999999999994-14.98L 39.215999999999994-14.98Q 41.135999999999996-19.06  43.676-19.06L 43.676-19.06Q 44.355999999999995-19.06  44.995999999999995-18.74Q 45.646-18.43  45.476-18.05Q 45.315999999999995-17.66  44.786-17.9Q 44.256-18.14  43.876-18.14Q 43.486-18.14  43.196-18L 43.196-18Q 41.565999999999995-17.23  41.565999999999995-14.69L 41.565999999999995-14.69Q 41.565999999999995-13.34  41.955999999999996-12.48Q 42.336-11.62  42.815999999999995-10.61L 42.815999999999995-10.61Q 43.916-8.11  43.916-6.53L 43.916-6.53Q 43.916-4.94  42.916-3.41Q 41.906-1.87  40.516-0.91ZM 38.876-1.25L 38.876-1.25Q 40.995999999999995-2.88  40.995999999999995-6.53L 40.995999999999995-6.53Q 40.995999999999995-8.02  40.656-10.61Q 40.315999999999995-13.2  40.315999999999995-14.11Q 40.315999999999995-15.02  40.366-15.36L 40.366-15.36Q 36.716-8.06  35.855999999999995-6.48L 35.855999999999995-6.48Q 36.866-6.48  36.866-5.04L 36.866-5.04Q 36.866-2.21  38.876-1.25ZM 35.275999999999996-2.54L 35.275999999999996-2.54Q 35.275999999999996-2.26  35.326-1.92L 35.326-1.92Q 35.716-0.62  37.105999999999995-0.62L 37.105999999999995-0.62Q 37.675999999999995-0.62  38.065999999999995-0.82L 38.065999999999995-0.82Q 36.286-1.92  36.146-4.42L 36.146-4.42Q 35.275999999999996-3.55  35.275999999999996-2.54Z"></path></svg>